<svg width="23" height="28" viewBox="0 0 23 28" fill="none" xmlns="http://www.w3.org/2000/svg">
<path d="M11.5579 9.40077C11.6344 8.44921 12.2907 7.14765 13.0125 5.76406L13.1493 5.50156C13.9532 3.96484 14.7844 2.37343 14.7407 1.44921C14.7297 1.1539 14.511 0.93515 14.243 0.93515C13.9641 0.93515 13.7399 1.16484 13.7454 1.43828C13.7235 2.58124 12.8868 4.23281 12.0719 5.83515C11.4704 7.02187 10.8524 8.24687 10.6391 9.12734L10.579 9.44452C10.579 9.46093 10.5735 9.47187 10.5735 9.48827C10.6665 9.52109 10.7649 9.54296 10.8633 9.54843C11.104 9.5703 11.3446 9.51562 11.5579 9.40077Z" fill="#FFC700"/>
<path d="M17.7212 7.32812H17.7157C17.5079 7.24062 17.2891 7.16953 17.0759 7.10937C15.0032 6.54062 13.6962 8.04453 12.7391 9.13828C12.5532 9.35156 12.3782 9.5539 12.2087 9.71797C12.1759 9.75078 12.1376 9.78906 12.0993 9.81641C12.0938 9.82187 12.0884 9.82187 12.0884 9.82734C11.7274 10.1062 11.2735 10.2375 10.8196 10.1937C10.5516 10.1773 10.2946 10.0953 10.0649 9.95312C10.0594 9.94765 10.054 9.94219 10.043 9.94219C9.93367 9.87109 9.8407 9.78359 9.76414 9.67969L9.74773 9.65781C9.34851 9.11641 8.75242 8.29062 7.93757 7.7C6.98054 7.00547 5.99617 6.80859 4.92976 7.1039C2.93914 7.65078 1.76883 9.28047 1.13445 10.5602C0.292263 12.25 0.0024195 14.0438 0.00788825 15.1594C0.0242945 17.6203 1.01961 20.5734 2.67664 23.0672C4.33914 25.5719 6.3407 27.0648 8.03054 27.0648C8.7032 27.0648 9.39773 26.693 9.98835 26.332C10.2126 26.1953 10.6173 26.1023 11.0384 26.1023C11.3884 26.1023 11.7493 26.168 12.0227 26.332C12.4766 26.6055 13.2368 27.0648 13.9805 27.0648C15.3915 27.0648 17.404 25.4789 19.1102 23.0289C20.9204 20.4313 22.0032 17.4836 22.0032 15.1594C21.9923 12.8188 21.0735 8.68984 17.7212 7.32812ZM3.01023 18.2492C2.98836 18.2547 2.96101 18.2547 2.93914 18.2547C2.78601 18.2547 2.64929 18.1453 2.61648 17.9977L2.47429 17.3305C2.43601 17.1555 2.54539 16.9805 2.72586 16.9422C2.90632 16.9039 3.07586 17.0133 3.11414 17.1938L3.25633 17.8609C3.30008 18.0359 3.18523 18.2109 3.01023 18.2492ZM3.84695 10.9484C3.83601 10.9594 3.44773 11.3695 3.14148 12.2227C2.85711 13.0211 2.59461 14.3719 2.96101 16.3023C2.99383 16.4828 2.87898 16.6523 2.69851 16.6852C2.51804 16.718 2.34851 16.6031 2.3157 16.4227C1.55554 12.3703 3.30554 10.5602 3.38211 10.4836C3.51336 10.3578 3.7157 10.3578 3.84695 10.4836C3.96726 10.6148 3.96726 10.8172 3.84695 10.9484Z" fill="#FFC700"/>
<path d="M13.6963 5.86796C13.226 6.77031 12.7502 7.68359 12.4658 8.44921C13.4775 7.31171 14.9541 5.85156 17.2455 6.47499C17.4205 6.52421 17.5955 6.5789 17.765 6.63906C18.1697 6.22343 18.4869 5.73124 18.6947 5.18437L18.9463 4.53359L18.2354 4.37499C16.3049 3.94843 14.6205 4.50077 13.6963 5.86796Z" fill="#FFC700"/>
<path d="M8.32044 7.18046C9.04778 7.70546 9.60012 8.37811 10.0048 8.91952L10.1525 8.14843C10.4806 5.30468 8.6759 2.65233 5.91419 1.90858L5.47122 1.78827L7.51653 4.64843C7.62044 4.79608 7.58762 4.99843 7.43997 5.1078C7.29231 5.21718 7.08997 5.17889 6.98059 5.03124L4.87513 2.08358L4.8095 2.6578C4.67825 3.76249 4.97356 5.24452 5.52591 6.34374C6.50481 6.25624 7.43997 6.54061 8.32044 7.18046Z" fill="#FFC700"/>
</svg>
