<svg width="22" height="21" viewBox="0 0 22 21" fill="none" xmlns="http://www.w3.org/2000/svg">
<path fill-rule="evenodd" clip-rule="evenodd" d="M3.89478 3.70882H21.0961C21.684 3.70882 22.115 4.26773 21.9726 4.84294L20.1368 12.261C20.041 12.648 19.7075 12.9274 19.3133 12.9508L4.87413 13.8081C5.13228 14.4176 5.73035 14.8359 6.41667 14.8359H16.5069C18.0173 14.8359 19.2461 16.0773 19.2461 17.6031C19.2461 19.129 18.0173 20.3704 16.5069 20.3704C14.6143 20.3704 13.2837 18.4632 13.9312 16.6614H8.98623C9.63456 18.4655 8.30112 20.3704 6.41056 20.3704C4.13275 20.3704 2.8533 17.7071 4.2536 15.9005C3.47693 15.279 3.02609 14.3643 2.95234 13.5213C1.80714 0.631444 1.85817 1.2059 1.96546 2.41361C2.03744 3.22378 2.13472 4.31892 1.91319 1.82551H0.903502C0.404511 1.82551 0 1.41686 0 0.912754C0 0.408653 0.404511 0 0.903502 0H2.7392C3.20687 0 3.59727 0.360581 3.63909 0.831171L3.89478 3.70882ZM5.47842 17.6031C5.47842 18.1224 5.89661 18.5449 6.41057 18.5449C6.92458 18.5449 7.34277 18.1224 7.34277 17.6031C7.34277 17.0839 6.92458 16.6614 6.41057 16.6614C5.89661 16.6614 5.47842 17.0839 5.47842 17.6031ZM16.5068 18.5449C15.9928 18.5449 15.5746 18.1224 15.5746 17.6031C15.5746 17.0839 15.9928 16.6614 16.5068 16.6614C17.0208 16.6614 17.439 17.0839 17.439 17.6031C17.439 18.1224 17.0208 18.5449 16.5068 18.5449ZM4.63091 11.9939L18.5447 11.1678L19.9389 5.53429H4.05697L4.63091 11.9939Z" fill="#FFC700"/>
</svg>
