<svg width="396" height="343" viewBox="0 0 396 343" fill="none" xmlns="http://www.w3.org/2000/svg">
<g clip-path="url(#clip0)">
<path d="M255.669 126.192L158.27 250.738L146.207 208.058L243.606 83.5113L255.669 126.192Z" fill="url(#paint0_linear)"/>
<path d="M255.669 126.192L52.0805 252.373L40.0245 209.69L243.606 83.5113L255.669 126.192Z" fill="url(#paint1_linear)"/>
<path opacity="0.6" d="M151.926 175.873C159.018 154.508 170.679 136.369 186.924 121.453C188.452 119.482 190.027 117.574 191.642 115.717L40.0245 209.69L52.0804 252.373L145.769 194.304C147.346 188.112 149.388 181.965 151.926 175.873Z" fill="url(#paint2_linear)"/>
<path d="M355.321 131.047L158.27 250.738L146.207 208.058L343.265 88.3633L355.321 131.047Z" fill="url(#paint3_linear)"/>
<path d="M134.014 191.241C129.591 193.952 126.517 192.594 124.802 187.17L128.548 183.818C129.623 187.372 131.055 188.599 132.852 187.496C133.546 187.068 134.007 186.524 134.223 185.853C134.438 185.182 134.442 184.462 134.23 183.678C134.027 182.915 133.712 182.299 133.29 181.824C132.868 181.35 132.438 181.008 131.996 180.808C131.557 180.615 130.949 180.405 130.173 180.186L126.031 179.093C124.811 178.761 123.833 178.25 123.092 177.545C122.352 176.84 121.774 175.744 121.375 174.251C120.809 172.132 120.939 170.132 121.765 168.25C122.594 166.376 124.007 164.807 126.004 163.562C126.922 162.989 127.768 162.611 128.543 162.437C129.319 162.262 129.998 162.251 130.57 162.4C131.146 162.557 131.678 162.861 132.16 163.316C132.642 163.772 133.051 164.312 133.395 164.916C133.732 165.523 134.048 166.234 134.339 167.058L130.652 170.297C130.484 169.759 130.326 169.301 130.172 168.926C130.015 168.545 129.826 168.187 129.605 167.834C129.384 167.482 129.142 167.233 128.904 167.086C128.655 166.934 128.362 166.872 128.026 166.905C127.688 166.931 127.323 167.089 126.941 167.358C126.278 167.814 125.826 168.38 125.583 169.046C125.347 169.71 125.329 170.419 125.525 171.168C125.766 172.05 126.119 172.675 126.587 173.043C127.057 173.418 127.715 173.716 128.574 173.948L132.681 175.04C133.373 175.245 133.985 175.479 134.529 175.735C135.066 175.994 135.615 176.334 136.157 176.753C136.699 177.173 137.17 177.718 137.575 178.38C137.98 179.042 138.294 179.805 138.528 180.673C139.059 182.662 138.916 184.633 138.095 186.581C137.243 188.535 135.89 190.085 134.014 191.241Z" fill="white"/>
<path d="M142.899 185.415L135.551 158.083L142.782 153.653C147.066 151.03 149.906 152.307 151.293 157.48C151.972 160.017 151.89 162.234 151.033 164.139C150.182 166.041 148.681 167.641 146.549 168.948L144.183 170.396L147.468 182.61L142.899 185.415ZM143.252 166.896L144.722 165.994C146.017 165.198 146.812 164.391 147.123 163.556C147.428 162.724 147.385 161.564 146.982 160.081C146.758 159.234 146.547 158.603 146.36 158.176C146.173 157.748 145.921 157.419 145.595 157.174C145.27 156.929 144.868 156.873 144.393 156.996C143.912 157.122 143.303 157.417 142.552 157.871L141.069 158.779L143.252 166.896Z" fill="white"/>
<path d="M158.996 175.551L151.649 148.22L162.167 141.776L163.111 145.287L157.169 148.923L159.279 156.766L163.976 153.886L164.921 157.397L160.224 160.277L162.647 169.293L168.668 165.604L169.59 169.048L158.996 175.551Z" fill="white"/>
<path d="M179.062 163.646C177.98 164.311 176.99 164.746 176.077 164.957C175.172 165.166 174.374 165.179 173.692 164.978C173.013 164.783 172.393 164.399 171.846 163.82C171.296 163.25 170.833 162.555 170.461 161.741C170.083 160.931 169.745 159.965 169.447 158.845L166.885 149.318C166.565 148.13 166.356 147.037 166.249 146.034C166.142 145.032 166.157 144.033 166.275 143.039C166.397 142.051 166.663 141.134 167.069 140.299C167.474 139.465 168.05 138.646 168.795 137.861C169.539 137.077 170.46 136.34 171.549 135.672C172.805 134.902 173.922 134.426 174.91 134.249C175.895 134.064 176.74 134.174 177.447 134.561C178.154 134.948 178.749 135.54 179.232 136.336C179.716 137.133 180.125 138.16 180.464 139.408L181.098 141.752L176.686 144.45L176.061 142.128C175.695 140.764 175.382 139.89 175.124 139.494C174.612 138.728 173.839 138.628 172.803 139.186C172.721 139.232 172.643 139.285 172.561 139.331C172.18 139.565 171.854 139.825 171.594 140.097C171.334 140.37 171.139 140.673 171.016 141.003C170.889 141.325 170.805 141.646 170.759 141.958C170.713 142.269 170.717 142.635 170.765 143.058C170.813 143.481 170.876 143.862 170.947 144.206C171.015 144.542 171.125 144.971 171.261 145.473L174.373 157.049C174.807 158.654 175.296 159.688 175.851 160.136C176.402 160.594 177.153 160.533 178.107 159.944C178.427 159.746 178.703 159.526 178.93 159.294C179.158 159.062 179.333 158.828 179.467 158.596C179.6 158.364 179.693 158.1 179.742 157.795C179.799 157.487 179.826 157.21 179.827 156.97C179.829 156.73 179.805 156.415 179.735 156.037C179.665 155.659 179.603 155.336 179.539 155.083C179.475 154.831 179.383 154.479 179.266 154.037L178.615 151.598L183.027 148.9L183.63 151.138C183.907 152.157 184.089 153.117 184.172 154.011C184.255 154.905 184.241 155.81 184.115 156.714C183.992 157.625 183.736 158.469 183.356 159.249C182.977 160.029 182.431 160.8 181.712 161.547C180.985 162.315 180.104 163.008 179.062 163.646Z" fill="white"/>
<path d="M189.07 157.136L181.723 129.804L186.242 127.04L193.589 154.372L189.07 157.136Z" fill="white"/>
<path d="M196.155 152.799L193.921 122.337L198.692 119.415L211.131 143.627L206.876 146.237L204.151 140.512L199.799 143.175L200.471 150.153L196.155 152.799ZM199.41 139.625L202.78 137.565L198.08 127.364L199.41 139.625Z" fill="white"/>
<path d="M213.601 142.106L206.254 114.774L210.833 111.974L217.251 135.865L223.272 132.176L224.197 135.627L213.601 142.106Z" fill="white"/>
<path d="M196.769 218.148C194.183 219.731 192.122 220.107 190.59 219.259C189.06 218.419 187.895 216.522 187.108 213.581L184.399 203.489C184.008 202.035 183.794 200.704 183.765 199.478C183.728 198.255 183.888 197.088 184.238 195.962C184.587 194.836 185.181 193.796 186.013 192.826C186.847 191.864 187.927 190.969 189.25 190.159C191.83 188.58 193.88 188.2 195.414 189.013C196.941 189.829 198.1 191.694 198.882 194.603L201.591 204.695C201.978 206.125 202.185 207.459 202.214 208.702C202.25 209.943 202.093 211.135 201.743 212.278C201.4 213.418 200.808 214.483 199.973 215.463C199.158 216.45 198.086 217.342 196.769 218.148ZM194.579 214.942C194.939 214.888 195.335 214.725 195.776 214.455C196.224 214.182 196.58 213.874 196.856 213.543C197.129 213.204 197.333 212.863 197.46 212.523C197.583 212.176 197.653 211.785 197.658 211.347C197.663 210.909 197.636 210.493 197.566 210.098C197.504 209.699 197.402 209.25 197.26 208.733L193.926 196.318C193.744 195.657 193.572 195.129 193.395 194.723C193.218 194.316 192.986 193.977 192.704 193.696C192.421 193.414 192.081 193.287 191.673 193.311C191.265 193.335 190.792 193.517 190.244 193.853C189.696 194.188 189.276 194.56 188.968 194.974C188.661 195.387 188.475 195.84 188.409 196.332C188.342 196.824 188.335 197.315 188.392 197.793C188.448 198.272 188.567 198.833 188.742 199.497L192.075 211.912C192.217 212.429 192.355 212.862 192.489 213.211C192.626 213.567 192.792 213.893 193 214.2C193.209 214.507 193.434 214.72 193.677 214.84C193.92 214.96 194.218 214.995 194.579 214.942Z" fill="white"/>
<path d="M207.277 211.325L199.929 183.993L210.255 177.671L211.181 181.122L205.434 184.643L207.565 192.588L212.155 189.774L213.099 193.285L208.509 196.099L211.849 208.527L207.277 211.325Z" fill="white"/>
<path d="M220.008 203.529L212.661 176.197L222.987 169.875L223.912 173.326L218.165 176.847L220.296 184.792L224.886 181.978L225.831 185.489L221.24 188.303L224.58 200.731L220.008 203.529Z" fill="white"/>
<path d="M232.746 195.729L225.399 168.398L235.917 161.954L236.862 165.464L230.919 169.101L233.029 176.944L237.726 174.064L238.671 177.575L233.974 180.454L236.397 189.471L242.411 185.785L243.336 189.236L232.746 195.729Z" fill="white"/>
<path d="M245.976 187.62L238.629 160.288L244.39 156.761C245.713 155.951 246.886 155.373 247.897 155.022C248.912 154.679 249.845 154.569 250.697 154.693C251.549 154.817 252.275 155.247 252.879 155.988C253.483 156.73 253.971 157.781 254.341 159.152C254.798 160.866 254.939 162.41 254.764 163.789C254.587 165.161 254.02 166.429 253.077 167.586L260.184 178.919L255.594 181.733L249.239 171.091L247.207 172.335L250.563 184.817L245.976 187.62ZM246.345 169.155L247.455 168.477C248.811 167.644 249.692 166.746 250.092 165.768C250.493 164.79 250.488 163.544 250.086 162.026C249.692 160.564 249.163 159.668 248.5 159.339C247.836 159.009 246.843 159.249 245.519 160.058L244.142 160.901L246.345 169.155Z" fill="white"/>
<path d="M46.3727 198.626C46.1957 198.707 45.989 198.647 45.8767 198.476C45.7683 198.295 45.822 198.057 46.0001 197.941L188.949 109.593C189.127 109.478 189.369 109.539 189.484 109.717C189.593 109.898 189.539 110.136 189.361 110.252L46.4119 198.6C46.401 198.613 46.3868 198.62 46.3727 198.626Z" fill="#FFC700"/>
<path d="M198.977 234.445C198.8 234.526 198.59 234.46 198.481 234.296C198.372 234.114 198.426 233.876 198.611 233.757L340.815 146.887C340.986 146.775 341.234 146.832 341.353 147.017C341.462 147.199 341.408 147.437 341.223 147.556L199.019 234.426C199.005 234.433 198.991 234.439 198.977 234.445Z" fill="#FFC700"/>
<path d="M260.701 133.018C260.524 133.098 260.317 133.039 260.205 132.868C260.096 132.686 260.15 132.448 260.328 132.333L309.914 101.717C310.085 101.605 310.334 101.662 310.449 101.841C310.558 102.022 310.504 102.26 310.326 102.376L260.74 132.991C260.729 133.005 260.715 133.011 260.701 133.018Z" fill="#FFC700"/>
<path d="M82.1234 240.726C81.9465 240.807 81.7366 240.741 81.6275 240.577C81.519 240.395 81.5727 240.157 81.7509 240.042L144.267 201.522C144.438 201.41 144.686 201.468 144.802 201.646C144.91 201.827 144.857 202.065 144.679 202.181L82.1627 240.7C82.1517 240.714 82.1376 240.72 82.1234 240.726Z" fill="#FFC700"/>
<path d="M227.802 223.278C227.625 223.358 227.415 223.292 227.306 223.128C227.197 222.947 227.251 222.708 227.436 222.589L289.821 184.421C289.999 184.305 290.241 184.366 290.36 184.551C290.468 184.732 290.414 184.971 290.229 185.089L227.844 223.258C227.83 223.265 227.816 223.271 227.802 223.278Z" fill="#FFC700"/>
<path d="M89.1905 165.68C89.0136 165.761 88.8068 165.701 88.6945 165.53C88.5861 165.349 88.6398 165.111 88.8179 164.995L147.304 128.888C147.482 128.773 147.724 128.833 147.839 129.012C147.948 129.193 147.894 129.431 147.716 129.547L89.2297 165.653C89.2188 165.667 89.2046 165.673 89.1905 165.68Z" fill="#FFC700"/>
</g>
<defs>
<linearGradient id="paint0_linear" x1="227.002" y1="113.861" x2="166.213" y2="233.545" gradientUnits="userSpaceOnUse">
<stop stop-color="#FFC801"/>
<stop offset="0.598958" stop-color="#A08B3E"/>
<stop offset="1" stop-color="#988543"/>
</linearGradient>
<linearGradient id="paint1_linear" x1="264.439" y1="161.21" x2="-17.8721" y2="202.596" gradientUnits="userSpaceOnUse">
<stop stop-color="#FFC700"/>
<stop offset="0.250115" stop-color="#AF9845"/>
<stop offset="0.485153" stop-color="#7E6C2A"/>
<stop offset="0.8856" stop-color="#BCA03B"/>
<stop offset="1" stop-color="#E7B811"/>
</linearGradient>
<linearGradient id="paint2_linear" x1="72.6269" y1="174.786" x2="191.115" y2="197.088" gradientUnits="userSpaceOnUse">
<stop/>
<stop offset="0.2135" stop-color="#030303"/>
<stop offset="0.386" stop-color="#0D0D0D"/>
<stop offset="0.5443" stop-color="#1E1E1E"/>
<stop offset="0.6939" stop-color="#363636"/>
<stop offset="0.8376" stop-color="#555555"/>
<stop offset="0.9749" stop-color="#7A7A7A"/>
<stop offset="1" stop-color="#828282"/>
</linearGradient>
<linearGradient id="paint3_linear" x1="208.441" y1="139.244" x2="387.204" y2="252.071" gradientUnits="userSpaceOnUse">
<stop stop-color="#FFC700"/>
<stop offset="0.2031" stop-color="#665F48"/>
<stop offset="0.4238" stop-color="#A89244"/>
<stop offset="0.6526" stop-color="#F2C218"/>
<stop offset="0.8856" stop-color="#454545"/>
<stop offset="1" stop-color="#F0C118"/>
</linearGradient>
<clipPath id="clip0">
<rect width="333" height="224" fill="white" transform="translate(0 138.299) rotate(-24.5389)"/>
</clipPath>
</defs>
</svg>
