<svg width="354" height="249" viewBox="0 0 354 249" fill="none" xmlns="http://www.w3.org/2000/svg">
<path d="M234.669 80.1919L137.27 204.738L125.207 162.058L222.606 37.5113L234.669 80.1919Z" fill="url(#paint0_linear)"/>
<path d="M234.669 80.1919L31.0805 206.373L19.0245 163.69L222.606 37.5113L234.669 80.1919Z" fill="url(#paint1_linear)"/>
<path opacity="0.6" d="M130.926 129.873C138.018 108.508 149.679 90.3685 165.924 75.4534C167.452 73.4817 169.027 71.5742 170.642 69.7169L19.0245 163.69L31.0804 206.373L124.769 148.304C126.346 142.112 128.388 135.965 130.926 129.873Z" fill="url(#paint2_linear)"/>
<path d="M334.321 85.0471L137.27 204.738L125.207 162.058L322.265 42.3633L334.321 85.0471Z" fill="url(#paint3_linear)"/>
<path d="M113.014 145.241C108.591 147.952 105.517 146.594 103.802 141.17L107.548 137.818C108.623 141.372 110.055 142.599 111.852 141.496C112.546 141.068 113.007 140.524 113.223 139.853C113.438 139.182 113.442 138.462 113.23 137.678C113.027 136.915 112.712 136.299 112.29 135.824C111.868 135.35 111.438 135.008 110.996 134.808C110.557 134.615 109.949 134.405 109.173 134.186L105.031 133.093C103.811 132.761 102.833 132.25 102.092 131.545C101.352 130.84 100.774 129.744 100.375 128.251C99.8093 126.132 99.9394 124.132 100.765 122.25C101.594 120.376 103.007 118.807 105.004 117.562C105.922 116.989 106.768 116.611 107.543 116.437C108.319 116.262 108.998 116.251 109.57 116.4C110.146 116.557 110.678 116.861 111.16 117.316C111.642 117.772 112.051 118.312 112.395 118.916C112.732 119.523 113.048 120.234 113.339 121.058L109.652 124.297C109.484 123.759 109.326 123.301 109.172 122.926C109.015 122.545 108.826 122.187 108.605 121.834C108.384 121.482 108.142 121.233 107.904 121.086C107.655 120.934 107.362 120.872 107.026 120.905C106.688 120.931 106.323 121.089 105.941 121.358C105.278 121.814 104.826 122.38 104.583 123.046C104.347 123.71 104.329 124.419 104.525 125.168C104.766 126.05 105.119 126.675 105.587 127.043C106.057 127.418 106.715 127.716 107.574 127.948L111.681 129.04C112.373 129.245 112.985 129.479 113.529 129.735C114.066 129.994 114.615 130.334 115.157 130.753C115.699 131.173 116.17 131.718 116.575 132.38C116.98 133.042 117.294 133.805 117.528 134.673C118.059 136.662 117.916 138.633 117.095 140.581C116.243 142.535 114.89 144.085 113.014 145.241Z" fill="white"/>
<path d="M121.899 139.415L114.551 112.083L121.782 107.653C126.066 105.03 128.906 106.307 130.293 111.48C130.972 114.017 130.89 116.234 130.033 118.139C129.182 120.041 127.681 121.641 125.549 122.948L123.183 124.396L126.468 136.61L121.899 139.415ZM122.252 120.896L123.722 119.994C125.017 119.198 125.812 118.391 126.123 117.556C126.428 116.724 126.385 115.564 125.982 114.081C125.758 113.234 125.547 112.603 125.36 112.176C125.173 111.748 124.921 111.419 124.595 111.174C124.27 110.929 123.868 110.873 123.393 110.996C122.912 111.122 122.303 111.417 121.552 111.871L120.069 112.779L122.252 120.896Z" fill="white"/>
<path d="M137.996 129.551L130.649 102.22L141.167 95.7762L142.111 99.2866L136.169 102.923L138.279 110.766L142.976 107.886L143.921 111.397L139.224 114.277L141.647 123.293L147.668 119.604L148.59 123.048L137.996 129.551Z" fill="white"/>
<path d="M158.062 117.646C156.98 118.311 155.99 118.746 155.077 118.957C154.172 119.166 153.374 119.179 152.692 118.978C152.013 118.783 151.393 118.399 150.846 117.82C150.296 117.25 149.833 116.555 149.461 115.741C149.083 114.931 148.745 113.965 148.447 112.845L145.885 103.318C145.565 102.13 145.356 101.037 145.249 100.034C145.142 99.0317 145.157 98.0333 145.275 97.0385C145.397 96.0509 145.663 95.1344 146.069 94.2995C146.474 93.4645 147.05 92.646 147.795 91.8613C148.539 91.0766 149.46 90.3399 150.549 89.6718C151.805 88.9017 152.922 88.426 153.91 88.2486C154.895 88.0641 155.74 88.174 156.447 88.5609C157.154 88.9479 157.749 89.5397 158.232 90.3364C158.716 91.1331 159.125 92.1605 159.464 93.408L160.098 95.752L155.686 98.4503L155.061 96.1276C154.695 94.7642 154.382 93.8899 154.124 93.4945C153.612 92.728 152.839 92.6277 151.803 93.1863C151.721 93.2321 151.643 93.285 151.561 93.3309C151.18 93.5645 150.854 93.8245 150.594 94.0973C150.334 94.37 150.139 94.6729 150.016 95.0027C149.889 95.3254 149.805 95.6461 149.759 95.9578C149.713 96.2694 149.717 96.635 149.765 97.0578C149.813 97.4807 149.876 97.8623 149.947 98.2059C150.015 98.5425 150.125 98.971 150.261 99.4735L153.373 111.049C153.807 112.654 154.296 113.688 154.851 114.136C155.402 114.594 156.153 114.533 157.107 113.944C157.427 113.746 157.703 113.526 157.93 113.294C158.158 113.062 158.333 112.828 158.467 112.596C158.6 112.364 158.693 112.1 158.742 111.795C158.799 111.487 158.826 111.21 158.827 110.97C158.829 110.73 158.805 110.415 158.735 110.037C158.665 109.659 158.603 109.336 158.539 109.083C158.475 108.831 158.383 108.479 158.266 108.037L157.615 105.598L162.027 102.9L162.63 105.138C162.907 106.157 163.089 107.117 163.172 108.011C163.255 108.905 163.241 109.81 163.115 110.714C162.992 111.625 162.736 112.469 162.356 113.249C161.977 114.029 161.431 114.8 160.712 115.547C159.985 116.315 159.104 117.008 158.062 117.646Z" fill="white"/>
<path d="M168.07 111.136L160.723 83.8042L165.242 81.04L172.589 108.372L168.07 111.136Z" fill="white"/>
<path d="M175.155 106.799L172.921 76.3374L177.692 73.4151L190.131 97.6269L185.876 100.237L183.151 94.5124L178.799 97.1746L179.471 104.153L175.155 106.799ZM178.41 93.6245L181.78 91.5647L177.08 81.3641L178.41 93.6245Z" fill="white"/>
<path d="M192.601 96.106L185.254 68.7744L189.833 65.9741L196.251 89.8654L202.272 86.1762L203.197 89.6269L192.601 96.106Z" fill="white"/>
<path d="M175.769 172.148C173.183 173.731 171.122 174.107 169.59 173.259C168.06 172.419 166.895 170.522 166.108 167.581L163.399 157.489C163.008 156.035 162.794 154.704 162.765 153.478C162.728 152.255 162.888 151.088 163.238 149.962C163.587 148.836 164.181 147.796 165.013 146.826C165.847 145.864 166.927 144.969 168.25 144.159C170.83 142.58 172.88 142.2 174.414 143.013C175.941 143.829 177.1 145.694 177.882 148.603L180.591 158.695C180.978 160.125 181.185 161.459 181.214 162.702C181.25 163.943 181.093 165.135 180.743 166.278C180.4 167.418 179.808 168.483 178.973 169.463C178.158 170.45 177.086 171.342 175.769 172.148ZM173.579 168.942C173.939 168.888 174.335 168.725 174.776 168.455C175.224 168.182 175.58 167.874 175.856 167.543C176.129 167.204 176.333 166.863 176.46 166.523C176.583 166.176 176.653 165.785 176.658 165.347C176.663 164.909 176.636 164.493 176.566 164.098C176.504 163.699 176.402 163.25 176.26 162.733L172.926 150.318C172.744 149.657 172.572 149.129 172.395 148.723C172.218 148.316 171.986 147.977 171.704 147.696C171.421 147.414 171.081 147.287 170.673 147.311C170.265 147.335 169.792 147.517 169.244 147.853C168.696 148.188 168.276 148.56 167.968 148.974C167.661 149.387 167.475 149.84 167.409 150.332C167.342 150.824 167.335 151.315 167.392 151.793C167.448 152.272 167.567 152.833 167.742 153.497L171.075 165.912C171.217 166.429 171.355 166.862 171.489 167.211C171.626 167.567 171.792 167.893 172 168.2C172.209 168.507 172.434 168.72 172.677 168.84C172.92 168.96 173.218 168.995 173.579 168.942Z" fill="white"/>
<path d="M186.277 165.325L178.929 137.993L189.255 131.671L190.181 135.122L184.434 138.643L186.565 146.588L191.155 143.774L192.099 147.285L187.509 150.099L190.849 162.527L186.277 165.325Z" fill="white"/>
<path d="M199.008 157.529L191.661 130.197L201.987 123.875L202.912 127.326L197.165 130.847L199.296 138.792L203.886 135.978L204.831 139.489L200.24 142.303L203.58 154.731L199.008 157.529Z" fill="white"/>
<path d="M211.746 149.729L204.399 122.398L214.917 115.954L215.862 119.464L209.919 123.101L212.029 130.944L216.726 128.064L217.671 131.575L212.974 134.454L215.397 143.471L221.411 139.785L222.336 143.236L211.746 149.729Z" fill="white"/>
<path d="M224.976 141.62L217.629 114.288L223.39 110.761C224.713 109.951 225.886 109.373 226.897 109.022C227.912 108.679 228.845 108.569 229.697 108.693C230.549 108.817 231.275 109.247 231.879 109.988C232.483 110.73 232.971 111.781 233.341 113.152C233.798 114.866 233.939 116.41 233.764 117.789C233.587 119.161 233.02 120.429 232.077 121.586L239.184 132.919L234.594 135.733L228.239 125.091L226.207 126.335L229.563 138.817L224.976 141.62ZM225.345 123.155L226.455 122.477C227.811 121.644 228.692 120.746 229.092 119.768C229.493 118.79 229.488 117.544 229.086 116.026C228.692 114.564 228.163 113.668 227.5 113.339C226.836 113.009 225.843 113.249 224.519 114.058L223.142 114.901L225.345 123.155Z" fill="white"/>
<path d="M25.3727 152.626C25.1957 152.707 24.989 152.647 24.8767 152.476C24.7683 152.295 24.822 152.057 25.0001 151.941L167.949 63.5934C168.127 63.4778 168.369 63.5386 168.484 63.7167C168.593 63.898 168.539 64.1363 168.361 64.2518L25.4119 152.6C25.401 152.613 25.3868 152.62 25.3727 152.626Z" fill="#FFC700"/>
<path d="M177.977 188.445C177.8 188.526 177.59 188.46 177.481 188.296C177.372 188.114 177.426 187.876 177.611 187.757L319.815 100.887C319.986 100.775 320.234 100.832 320.353 101.017C320.462 101.199 320.408 101.437 320.223 101.556L178.019 188.426C178.005 188.433 177.991 188.439 177.977 188.445Z" fill="#FFC700"/>
<path d="M239.701 87.0175C239.524 87.0983 239.317 87.0388 239.205 86.8677C239.096 86.6864 239.15 86.4481 239.328 86.3326L288.914 55.7172C289.085 55.6049 289.334 55.6624 289.449 55.8405C289.558 56.0219 289.504 56.2601 289.326 56.3757L239.74 86.9911C239.729 87.0046 239.715 87.011 239.701 87.0175Z" fill="#FFC700"/>
<path d="M61.1234 194.726C60.9465 194.807 60.7366 194.741 60.6275 194.577C60.519 194.395 60.5727 194.157 60.7509 194.042L123.267 155.522C123.438 155.41 123.686 155.468 123.802 155.646C123.91 155.827 123.857 156.065 123.679 156.181L61.1627 194.7C61.1517 194.714 61.1376 194.72 61.1234 194.726Z" fill="#FFC700"/>
<path d="M206.802 177.278C206.625 177.358 206.415 177.292 206.306 177.128C206.197 176.947 206.251 176.708 206.436 176.589L268.821 138.421C268.999 138.305 269.241 138.366 269.36 138.551C269.468 138.732 269.414 138.971 269.229 139.089L206.844 177.258C206.83 177.265 206.816 177.271 206.802 177.278Z" fill="#FFC700"/>
<path d="M68.1905 119.68C68.0136 119.761 67.8068 119.701 67.6945 119.53C67.5861 119.349 67.6398 119.111 67.8179 118.995L126.304 82.8883C126.482 82.7727 126.724 82.8335 126.839 83.0116C126.948 83.1929 126.894 83.4312 126.716 83.5467L68.2297 119.653C68.2188 119.667 68.2046 119.673 68.1905 119.68Z" fill="#FFC700"/>
<defs>
<linearGradient id="paint0_linear" x1="206.002" y1="67.8607" x2="145.213" y2="187.545" gradientUnits="userSpaceOnUse">
<stop stop-color="#FFC801"/>
<stop offset="0.598958" stop-color="#A08B3E"/>
<stop offset="1" stop-color="#988543"/>
</linearGradient>
<linearGradient id="paint1_linear" x1="243.439" y1="115.21" x2="-38.8721" y2="156.596" gradientUnits="userSpaceOnUse">
<stop stop-color="#FFC700"/>
<stop offset="0.250115" stop-color="#AF9845"/>
<stop offset="0.485153" stop-color="#7E6C2A"/>
<stop offset="0.8856" stop-color="#BCA03B"/>
<stop offset="1" stop-color="#E7B811"/>
</linearGradient>
<linearGradient id="paint2_linear" x1="51.6269" y1="128.786" x2="170.115" y2="151.088" gradientUnits="userSpaceOnUse">
<stop/>
<stop offset="0.2135" stop-color="#030303"/>
<stop offset="0.386" stop-color="#0D0D0D"/>
<stop offset="0.5443" stop-color="#1E1E1E"/>
<stop offset="0.6939" stop-color="#363636"/>
<stop offset="0.8376" stop-color="#555555"/>
<stop offset="0.9749" stop-color="#7A7A7A"/>
<stop offset="1" stop-color="#828282"/>
</linearGradient>
<linearGradient id="paint3_linear" x1="187.441" y1="93.2445" x2="366.204" y2="206.071" gradientUnits="userSpaceOnUse">
<stop stop-color="#FFC700"/>
<stop offset="0.2031" stop-color="#665F48"/>
<stop offset="0.4238" stop-color="#A89244"/>
<stop offset="0.6526" stop-color="#F2C218"/>
<stop offset="0.8856" stop-color="#454545"/>
<stop offset="1" stop-color="#F0C118"/>
</linearGradient>
</defs>
</svg>
