<svg width="68" height="56" viewBox="0 0 68 56" fill="none" xmlns="http://www.w3.org/2000/svg">
<path fill-rule="evenodd" clip-rule="evenodd" d="M67.3134 29.0784C66.9751 28.4173 66.2928 28.0008 65.5471 28.0003H60.6479C62.0046 25.9992 62.824 23.6858 63.0279 21.2804C63.0277 20.8435 62.7724 20.4466 62.3739 20.2632C60.0264 19.0655 57.3144 18.782 54.7679 19.4679L62.2795 12.8401C64.2731 11.398 65.1478 8.86938 64.4687 6.51178L64.924 6.66284C65.3058 6.79081 65.7271 6.70602 66.0287 6.44051C66.3304 6.175 66.4665 5.76931 66.3855 5.37662C66.3045 4.98406 66.0187 4.66447 65.6363 4.53873L63.9861 3.99156L66.0759 1.91273C66.5087 1.47423 66.5054 0.770745 66.0688 0.336184C65.6322 -0.0983768 64.9251 -0.101527 64.4844 0.329097L62.3954 2.40701L61.8464 0.766545C61.6498 0.179343 61.0121 -0.137882 60.4219 0.0578078C59.8318 0.253498 59.513 0.88808 59.7097 1.47528L60.0107 2.37459C57.7456 1.88635 55.4046 2.77778 54.0458 4.64609L45.9849 13.6922C45.7397 12.835 45.2633 12.0612 44.6073 11.4544C44.3319 11.2305 43.9664 11.149 43.6214 11.2346C40.0174 12.2083 36.6143 13.8067 33.5679 15.9561C32.7099 11.7031 29.2176 8.47091 24.8928 7.92702C25.3729 5.91093 27.1799 4.48571 29.2621 4.48085C29.8837 4.48085 30.3876 3.97949 30.3876 3.36092C30.3876 2.74235 29.8837 2.24098 29.2621 2.24098C26.9969 2.24216 24.8834 3.37378 23.6344 5.25416C22.3858 3.37391 20.2726 2.24229 18.0077 2.24098C17.3861 2.24098 16.8823 2.74235 16.8823 3.36092C16.8823 3.97949 17.3861 4.48085 18.0077 4.48085C20.0896 4.48597 21.8961 5.91132 22.376 7.92715C17.4208 8.55123 13.6618 12.6752 13.5197 17.6432C10.3259 15.1014 7.75654 15.674 7.60525 15.7146C7.36585 15.7735 7.15271 15.9091 6.99852 16.1007C4.45114 19.52 3.73163 23.9575 5.06883 28.0006H1.98265C1.19178 28 0.476624 28.4679 0.163495 29.1906C-0.115472 29.8307 -0.0334303 30.5699 0.378887 31.1341L0.74161 32.0157C3.99279 39.8757 9.63729 46.5246 16.8817 51.0279V52.767C16.8838 54.5521 18.3379 55.9986 20.132 56H47.3978C49.1918 55.9986 50.646 54.5521 50.6481 52.767V51.0279C57.8914 46.5262 63.5348 39.8786 66.7849 32.02L67.1509 31.1341C67.5889 30.5335 67.6517 29.7395 67.3134 29.0784ZM60.691 21.9847C60.2344 24.1658 59.2999 26.2197 57.9541 28.0002H55.4282C55.4242 27.9899 55.4194 27.9802 55.4146 27.9704L55.4099 27.9608C55.407 27.9547 55.4041 27.9485 55.4016 27.9421C55.2438 27.5456 55.0656 27.1576 54.8678 26.7793C54.8491 26.7435 54.8292 26.7083 54.8092 26.6732C54.796 26.6499 54.7828 26.6266 54.7699 26.603C54.5781 26.2497 54.3709 25.9083 54.1479 25.5788C54.1343 25.5587 54.1212 25.5384 54.1079 25.5182L54.0955 25.4994L54.0846 25.4834C53.5566 24.7187 52.943 24.0163 52.2554 23.3897C54.5069 21.235 57.8572 20.6769 60.691 21.9847ZM45.1223 19.5846L45.0836 19.66L45.0294 19.7669L45.0293 19.767C44.9575 19.9089 44.8856 20.0507 44.8045 20.1942L44.8332 20.1978C46.3583 20.3117 47.8489 20.7062 49.2294 21.3614L60.8282 11.1272C60.8575 11.1011 60.8883 11.0766 60.9205 11.054C62.2539 10.1059 62.7869 8.38862 62.2229 6.85748C61.6589 5.32635 60.1368 4.35866 58.5035 4.49266C57.7553 4.55711 57.0457 4.85123 56.4727 5.33436L58.1957 7.04884C58.6302 7.48695 58.6277 8.19188 58.1903 8.6271C57.753 9.06231 57.0447 9.06468 56.6042 8.63248L54.9593 6.99569L53.2814 8.87857L54.8193 10.4088C55.2537 10.8469 55.2512 11.5518 54.8138 11.987C54.3765 12.4223 53.6682 12.4246 53.2278 11.9924L51.7854 10.5574L49.5786 13.0339L51.4426 14.8887C51.8771 15.3268 51.8746 16.0317 51.4372 16.4669C50.9998 16.9021 50.2915 16.9045 49.8511 16.4723L48.0826 14.7127L46.071 16.97C46.0692 16.9792 46.0665 16.9887 46.0639 16.9981L46.0639 16.9981L46.0639 16.9982C46.0616 17.0066 46.0592 17.015 46.0574 17.0233C46.0147 17.2209 45.9623 17.4237 45.9019 17.6323C45.8723 17.7356 45.8383 17.8398 45.8044 17.9439L45.8021 17.9509L45.802 17.9512C45.7437 18.1293 45.6857 18.3067 45.6136 18.4923C45.5135 18.7513 45.4003 19.013 45.2761 19.2769C45.2284 19.3778 45.1754 19.481 45.1224 19.5844L45.1223 19.5846ZM44.6437 22.4527C45.0365 22.4804 45.4275 22.5304 45.8145 22.6026C45.8781 22.6147 45.941 22.6286 46.0039 22.6425L46.004 22.6425L46.004 22.6425L46.004 22.6425L46.0727 22.6576C46.4944 22.7492 46.9099 22.8673 47.3167 23.0112L47.3386 23.019L47.3389 23.0191C47.3985 23.0403 47.4579 23.0615 47.5169 23.0839C47.947 23.2462 48.3652 23.4385 48.7682 23.6591C49.2152 23.902 49.6431 24.1782 50.0479 24.4857C50.3996 24.7553 50.7334 25.0472 51.0472 25.3597C51.0699 25.3824 51.0935 25.4042 51.1171 25.4259L51.1171 25.426C51.146 25.4527 51.1749 25.4794 51.2023 25.5078C51.5124 25.8316 51.8005 26.1757 52.0643 26.5377C52.0718 26.548 52.0796 26.5581 52.0876 26.568C52.0984 26.5816 52.1094 26.5949 52.1205 26.6082C52.1424 26.6345 52.1643 26.6608 52.1842 26.689C52.4794 27.1054 52.7421 27.5438 52.97 28.0003H34.8224C35.6786 26.2779 37.0131 24.8359 38.6678 23.8453C38.6875 23.8334 38.7082 23.8231 38.7288 23.8128C38.7471 23.8036 38.7655 23.7945 38.7832 23.7842C39.1563 23.5662 39.5431 23.3724 39.9411 23.2038C39.9879 23.1842 40.0362 23.1677 40.0844 23.1511L40.0844 23.1511C40.1216 23.1384 40.1588 23.1256 40.1953 23.1114C40.5562 22.9685 40.9251 22.8465 41.3002 22.7459C41.3755 22.7263 41.4523 22.7112 41.5291 22.696L41.5292 22.696L41.5295 22.696C41.5777 22.6865 41.6259 22.677 41.6738 22.6664C42.0229 22.5862 42.3761 22.5246 42.7319 22.4817C42.8322 22.4704 42.934 22.4647 43.0358 22.459L43.0358 22.459L43.0359 22.459L43.0359 22.459L43.036 22.459L43.036 22.459L43.0362 22.459C43.0859 22.4562 43.1357 22.4534 43.1853 22.45C43.539 22.4229 43.8938 22.4147 44.2483 22.4252C44.3411 22.4284 44.4327 22.4358 44.5244 22.4433C44.5641 22.4466 44.6039 22.4498 44.6437 22.4527ZM43.4979 13.5969C39.781 14.6738 36.3352 16.521 33.3865 19.017C32.6908 19.6619 32.071 20.3835 31.5394 21.1678C31.5207 21.1956 31.5023 21.2237 31.4839 21.2518L31.4838 21.252L31.4837 21.2522L31.4835 21.2524L31.4834 21.2526L31.4673 21.2773C30.515 22.6979 29.9975 24.363 29.9779 26.0706C29.9778 26.0867 29.9772 26.1027 29.9766 26.1188C29.976 26.1379 29.9753 26.157 29.9754 26.1762C29.9777 26.5764 30.0056 26.9759 30.0587 27.3725C30.0661 27.4285 30.0751 27.4848 30.0841 27.541L30.0841 27.5411L30.0841 27.5412L30.0935 27.601C30.1056 27.6794 30.1236 27.7589 30.1416 27.8385C30.1538 27.8925 30.166 27.9466 30.1764 28.0003H32.3581C32.3604 27.9946 32.3629 27.9891 32.3656 27.9837L32.3709 27.9732C32.3735 27.9681 32.376 27.9631 32.3785 27.958C32.3802 27.9543 32.3818 27.9506 32.3833 27.9469C32.5659 27.4903 32.7756 27.0449 33.0113 26.6131C33.0465 26.5486 33.0817 26.4845 33.118 26.4207C34.7042 23.6087 37.3421 21.5339 40.4579 20.6474L40.4818 20.6406C41.0044 20.4915 41.5363 20.3769 42.0741 20.2975L42.0742 20.2973C42.2526 20.0396 42.431 19.7819 42.5847 19.531C42.6109 19.4881 42.6349 19.4463 42.6589 19.4044C42.6733 19.3794 42.6876 19.3544 42.7025 19.3292C42.8796 19.0287 43.0406 18.7328 43.1811 18.443C43.2157 18.3715 43.2474 18.3017 43.2791 18.2319L43.282 18.2256C43.4015 17.9643 43.5026 17.7086 43.5913 17.4568C43.6306 17.3442 43.6682 17.2329 43.7007 17.125C43.7661 16.9095 43.8167 16.6988 43.8588 16.4909C44.1097 15.5155 43.9807 14.4818 43.4979 13.5969ZM17.2371 13.3311C18.7178 11.2846 21.0996 10.0742 23.6339 10.0807C27.8982 10.0921 31.3827 13.4712 31.5039 17.7127C31.4812 17.7353 31.4609 17.7586 31.4406 17.7818L31.4406 17.7818C31.4219 17.8032 31.4033 17.8246 31.3827 17.8454C31.1117 18.12 30.8529 18.4049 30.6027 18.6992L30.5965 18.7064L30.5965 18.7065L30.5965 18.7065L30.5964 18.7066C30.5196 18.7971 30.4429 18.8876 30.3694 18.9791C30.134 19.2706 29.9139 19.5728 29.7031 19.8832L29.6632 19.942C29.6154 20.0125 29.5676 20.0829 29.5222 20.154C29.4862 20.2101 29.4481 20.2646 29.41 20.3191L29.41 20.3192L29.41 20.3192L29.41 20.3192C29.356 20.3965 29.302 20.4738 29.254 20.5554C28.4142 21.9676 27.9057 23.5502 27.7664 25.1853C27.7653 25.1982 27.7645 25.2112 27.7637 25.2243C27.7631 25.2347 27.7625 25.2451 27.7617 25.2555C27.7303 25.6563 27.7208 26.0586 27.7333 26.4605L27.7342 26.4908L27.7342 26.4909L27.7342 26.4911C27.7361 26.5621 27.738 26.6331 27.7414 26.7045C27.7597 27.0607 27.7959 27.4202 27.8477 27.7823C27.8525 27.8167 27.855 27.8508 27.8575 27.8849V27.8849V27.8849C27.8603 27.9232 27.8631 27.9615 27.8692 28.0003H26.3513C26.3282 27.9437 26.2995 27.8904 26.2709 27.8372L26.2709 27.8372C26.2478 27.7943 26.2248 27.7515 26.2046 27.707C26.1185 27.5165 26.0249 27.3329 25.9262 27.1502C25.8035 26.9234 25.6733 26.704 25.5322 26.4899C25.4188 26.3174 25.3022 26.1497 25.1774 25.9862C25.0219 25.7821 24.8568 25.5886 24.685 25.3991C24.5485 25.2486 24.4124 25.1001 24.2662 24.959C24.0803 24.7796 23.8836 24.6145 23.6831 24.4516L23.6159 24.3968L23.6158 24.3968L23.6158 24.3967L23.6158 24.3967C23.484 24.2891 23.3528 24.1819 23.2138 24.0832C22.998 23.93 22.7712 23.7959 22.5426 23.6619C22.4977 23.6356 22.4532 23.6089 22.4087 23.5823C22.2878 23.5098 22.1672 23.4375 22.0408 23.3738C21.8047 23.2548 21.5587 23.1579 21.3118 23.0607L21.2763 23.0467C21.2194 23.0243 21.163 23.0007 21.1067 22.9772C20.9951 22.9305 20.8837 22.8839 20.7679 22.8462C20.4715 22.7555 20.1705 22.6803 19.8663 22.6206C19.8062 22.6077 19.7468 22.5924 19.6875 22.5771L19.6874 22.5771C19.598 22.5541 19.5087 22.5311 19.4167 22.5164C18.9508 22.4403 18.4797 22.4013 18.0076 22.4001C17.845 22.4001 17.6867 22.4067 17.535 22.4165C17.3891 22.1764 17.2334 21.9386 17.0768 21.6993L17.0767 21.6991L17.0767 21.6991L17.0723 21.6924C16.9836 21.5567 16.8949 21.4239 16.8065 21.2942C16.5933 20.982 16.3804 20.6772 16.1688 20.3987C15.3584 18.0093 15.7562 15.3777 17.2371 13.3311ZM16.0754 24.9349C16.0688 24.9373 16.0622 24.9397 16.0555 24.9418C15.7845 25.0241 15.5188 25.1233 15.2602 25.2387C15.2017 25.2649 15.145 25.2941 15.0882 25.3234L15.088 25.3234L15.0879 25.3235C15.06 25.3379 15.0322 25.3522 15.0041 25.3662C14.8244 25.4553 14.6474 25.5492 14.4768 25.6535C14.3654 25.7219 14.2585 25.7965 14.1516 25.8711L14.1515 25.8711L14.1484 25.8733C14.0128 25.9674 13.8797 26.0644 13.7516 26.1679C13.6367 26.2611 13.5259 26.359 13.4173 26.4596C13.3055 26.5625 13.1974 26.6692 13.0929 26.7796C12.9877 26.8902 12.8864 27.0046 12.7889 27.1226C12.6925 27.2396 12.6015 27.361 12.513 27.4845C12.4251 27.6072 12.339 27.731 12.2592 27.8597C12.2434 27.8853 12.2292 27.9117 12.215 27.9382C12.2039 27.959 12.1927 27.9797 12.1808 28H23.8256L23.8095 27.9724L23.7769 27.916C23.7327 27.8391 23.6885 27.7623 23.6397 27.6887L23.597 27.6236L23.5969 27.6235C23.5481 27.5489 23.4993 27.4744 23.4464 27.403C23.2956 27.2015 23.1336 27.0085 22.9612 26.8248C22.9388 26.8007 22.9175 26.7756 22.8962 26.7505L22.8961 26.7504C22.8679 26.7172 22.8396 26.6839 22.8089 26.653C22.5785 26.4216 22.3317 26.2069 22.0704 26.0106C22.033 25.9825 21.9937 25.9573 21.9544 25.9321L21.9543 25.9321L21.9543 25.9321L21.9543 25.9321C21.9252 25.9135 21.8961 25.8948 21.8678 25.875C21.6661 25.7327 21.4568 25.6012 21.2407 25.4814C21.1624 25.4384 21.0818 25.3997 21.0011 25.3609L20.9343 25.3287C20.7374 25.2335 20.5364 25.1467 20.3305 25.0705C20.219 25.0292 20.1071 24.9893 19.9934 24.9539C19.7737 24.887 19.5508 24.8312 19.3256 24.7868C19.2899 24.7796 19.2544 24.7717 19.2189 24.7639C19.1519 24.749 19.085 24.7342 19.0166 24.7237C18.4646 24.6271 17.9012 24.6141 17.3454 24.6851L17.2959 24.6908C17.2064 24.7011 17.1169 24.7114 17.0411 24.7223C16.7217 24.7681 16.4062 24.8366 16.0968 24.9275L16.0902 24.9296C16.0853 24.9313 16.0804 24.9331 16.0755 24.9349L16.0754 24.9349ZM8.49623 17.8602C9.38154 17.8967 11.6535 18.2237 14.2866 21.6386C14.4835 21.8933 14.6868 22.1766 14.9034 22.4889C14.9271 22.5235 14.9507 22.5574 14.9743 22.5913C15.0175 22.6533 15.0607 22.7152 15.1043 22.781C15.1137 22.7952 15.1232 22.8108 15.1327 22.8265L15.1327 22.8265C15.1414 22.8408 15.1501 22.8551 15.1587 22.8684C15.1242 22.88 15.0913 22.8951 15.0584 22.9101L15.0583 22.9102C15.0291 22.9235 14.9998 22.9369 14.9695 22.9479C14.6357 23.0679 14.3096 23.2074 13.9925 23.3658C13.8928 23.4157 13.7949 23.4667 13.6972 23.5203C12.9428 23.9303 12.2513 24.4454 11.6433 25.0501C11.5976 25.0956 11.5535 25.1419 11.5092 25.1885L11.5092 25.1886L11.4798 25.2194C11.1945 25.5156 10.9302 25.831 10.6883 26.1634C10.6807 26.1738 10.6726 26.1838 10.6645 26.1938L10.6645 26.1938C10.6557 26.2047 10.6469 26.2155 10.6388 26.227C10.391 26.5812 10.1692 26.9528 9.97561 27.3391C9.94404 27.4012 9.91486 27.4644 9.88561 27.5278L9.88559 27.5278C9.87737 27.5456 9.86914 27.5634 9.86085 27.5812C9.85761 27.5882 9.85436 27.5951 9.8511 27.6021C9.82844 27.6507 9.80461 27.6986 9.78079 27.7466L9.78078 27.7466C9.7393 27.83 9.69784 27.9135 9.66248 28.0004H7.46966C6.0706 24.6644 6.45667 20.8514 8.49623 17.8602ZM49.1865 49.2799C56.1545 45.0302 61.5871 38.6895 64.7019 31.171L65.0852 30.2403H6.75173H2.44417L2.82562 31.1666C5.9395 38.6873 11.3728 45.0298 18.3424 49.2799H32.6393C33.261 49.2799 33.7648 49.7812 33.7648 50.3998C33.7648 51.0184 33.261 51.5197 32.6393 51.5197H19.1329V52.7666C19.1338 53.3152 19.5808 53.7595 20.132 53.7597H47.3978C47.949 53.7595 48.396 53.3151 48.3969 52.7666V51.5197H46.1458C45.5242 51.5197 45.0203 51.0184 45.0203 50.3998C45.0203 49.7812 45.5242 49.2799 46.1458 49.2799H49.1865Z" fill="#FFC700"/>
</svg>
