<svg width="82" height="81" viewBox="0 0 82 81" fill="none" xmlns="http://www.w3.org/2000/svg">
<path fill-rule="evenodd" clip-rule="evenodd" d="M80.2515 37.0222C83.0778 33.4075 81.8536 30.0189 80.8879 28.8362C78.7759 25.6666 75.8608 23.7129 72.2231 23.0294C72.0313 22.9933 71.8371 22.9733 71.6429 22.9533C71.5458 22.9433 71.4487 22.9333 71.3519 22.9212C71.727 22.6065 72.0869 22.2904 72.4259 21.9715C74.8673 19.6657 76.0386 17.2018 75.9066 14.6478C75.7037 10.7392 72.4551 8.20605 72.3162 8.09929L72.2509 8.05215C66.5276 4.17404 60.1026 8.86742 59.8316 9.06985L59.5871 9.30279C59.5306 9.37168 59.4754 9.4472 59.4204 9.52261C59.3779 9.58077 59.3355 9.63886 59.2925 9.69379C58.6645 6.47844 56.9234 3.92169 54.1097 2.09702C53.4497 1.57014 49.2382 -1.53567 44.3235 0.955911C43.715 1.26511 43.1647 1.66443 42.645 2.10257C41.2055 1.69632 39.6048 1.5743 38.0181 2.13446C35.8616 2.89705 34.4498 4.72865 34.2414 7.03582C34.0191 9.48859 35.2585 11.8637 37.3969 13.088C39.3547 14.2083 41.7002 16.2826 43.8789 20.0858C42.5825 19.9971 41.3292 20.1343 40.1454 20.56C33.0854 23.0904 5.16222 63.9125 0.208696 77.169C-0.20815 78.2866 0.00860983 79.4554 0.776997 80.2235C1.28694 80.7324 1.97474 81 2.70838 81C3.07938 81 3.46149 80.9321 3.83804 80.792C17.2174 75.8144 58.2935 48.0894 60.7876 41.1582C61.128 40.2112 61.2892 39.2185 61.3017 38.1966C65.1117 40.0587 67.1264 41.8709 68.1769 43.3101C69.7081 45.4065 72.1772 46.7015 74.6394 46.7015H74.7186C76.7709 46.678 78.5925 45.7379 79.718 44.1226C81.3909 41.7184 80.7976 39.1228 79.9056 37.4257C79.9381 37.3882 79.971 37.351 80.0038 37.314L80.004 37.3137L80.0042 37.3135L80.0045 37.3132L80.0047 37.313C80.0904 37.2161 80.1753 37.1203 80.2515 37.0222ZM78.6397 30.4612C78.7981 30.6678 80.0973 32.5174 78.2229 35.1019C78.1887 35.0613 78.1537 35.0231 78.1184 34.9848C78.0935 34.9576 78.0684 34.9304 78.0436 34.9022C77.9422 34.7857 77.8408 34.6734 77.738 34.5597C77.4753 34.2672 77.2113 33.9857 76.9432 33.7153C76.8612 33.6321 76.7792 33.549 76.6972 33.4685C72.3481 29.2174 67.3904 27.8795 62.8913 27.8795C61.2961 27.8795 59.758 28.0472 58.3254 28.3093C58.4796 28.24 58.6394 28.1706 58.7965 28.1027C59.0146 28.007 59.2328 27.9113 59.4565 27.8171C59.6968 27.7158 59.94 27.6174 60.1873 27.5203C60.373 27.4465 60.5631 27.3749 60.7527 27.3035L60.814 27.2805C61.2003 27.1363 61.5921 26.9962 61.9909 26.8631L61.9911 26.8631C62.2397 26.7799 62.4884 26.6967 62.7398 26.6205C62.983 26.5456 63.2303 26.4749 63.4762 26.4056C63.75 26.3293 64.0251 26.2586 64.3016 26.1907C64.5726 26.1241 64.8449 26.0589 65.1186 26.0007C65.5021 25.9189 65.887 25.8468 66.2733 25.7858C66.4817 25.7525 66.6901 25.7248 66.8986 25.6985C68.5298 25.4877 70.1625 25.4669 71.7145 25.7567C74.6269 26.3044 76.8709 27.8143 78.6397 30.4612ZM70.6488 10.3191C66.9152 7.83169 62.4314 10.6519 61.6227 11.2023C60.8849 12.1174 60.1734 13.1407 59.4578 14.3151C59.4512 14.3796 59.4411 14.4438 59.431 14.5079C59.422 14.5651 59.413 14.6223 59.4064 14.6797C59.3661 15.0278 59.3189 15.3758 59.2605 15.7238C59.2216 15.9581 59.1772 16.1897 59.1313 16.4226C59.0618 16.7734 58.9896 17.1228 58.9062 17.4708C58.8622 17.6545 58.8136 17.8363 58.7648 18.0185L58.7647 18.0191L58.7311 18.1447L58.7191 18.1899L58.719 18.1902C58.6286 18.5284 58.539 18.864 58.4366 19.197C58.3952 19.3342 58.3499 19.4694 58.3047 19.6045C58.2832 19.6688 58.2617 19.733 58.2407 19.7974L58.2171 19.8691L58.217 19.8693C58.1041 20.2126 57.9918 20.5543 57.8697 20.89C57.8435 20.9629 57.8154 21.0339 57.7874 21.105C57.7664 21.1583 57.7454 21.2116 57.7252 21.2657C56.9637 23.2803 56.0689 25.148 55.2171 26.7231L55.2616 26.7009C56.269 26.1879 57.3931 25.6652 58.6005 25.1674C58.6666 25.1403 58.7322 25.1131 58.7977 25.0859L58.7979 25.0858C58.9169 25.0363 59.0359 24.9869 59.1577 24.9386C59.4014 24.8419 59.6503 24.7504 59.8999 24.6586L59.9001 24.6586L60.0095 24.6183C60.2526 24.5282 60.4958 24.4395 60.7445 24.3535C61.021 24.2579 61.3003 24.1677 61.5824 24.0776C61.8547 23.9916 62.1284 23.9098 62.405 23.8294C62.6801 23.749 62.9552 23.6714 63.2345 23.5993C63.5095 23.5268 63.7869 23.4637 64.0656 23.4003L64.0657 23.4003L64.1418 23.383L64.2096 23.3676L64.329 23.3403L64.3294 23.3402C64.5301 23.2943 64.7303 23.2484 64.9338 23.2083C65.3187 23.1334 65.7064 23.0751 66.0954 23.0169C66.1718 23.0054 66.248 22.9923 66.3242 22.9792C66.4321 22.9606 66.5401 22.942 66.6485 22.9282C68.1463 21.9673 69.4469 20.969 70.5154 19.9596C72.3398 18.2362 73.2193 16.4975 73.1318 14.792C73.0054 12.3296 70.8975 10.5229 70.6488 10.3191ZM45.6352 3.40313C49.177 1.64363 52.2631 4.16849 52.3881 4.27248C52.4368 4.31407 52.4868 4.35151 52.5396 4.38617C54.7753 5.81845 56.0967 7.74434 56.5774 10.272C56.7831 11.3507 56.8137 12.4821 56.7289 13.6329L56.7192 13.7577C56.5385 15.9415 55.9147 18.1918 55.1226 20.2841C55.1796 18.9544 55.1157 17.5845 54.8906 16.2063C54.887 16.1838 54.8826 16.1617 54.8782 16.1397C54.8742 16.1198 54.8703 16.0999 54.867 16.0801C54.8156 15.782 54.7586 15.4839 54.6919 15.1844C54.6516 15.0014 54.6044 14.8184 54.5571 14.6368L54.5504 14.611C54.5137 14.4697 54.4768 14.3273 54.4348 14.1861C54.364 13.9379 54.2876 13.6911 54.2042 13.4443C54.1883 13.3967 54.1709 13.3483 54.1537 13.3002L54.1536 13.2999L54.1535 13.2997L54.1333 13.2433C53.4525 11.3035 52.3742 9.40401 50.7722 7.62926C50.7499 7.60495 50.7276 7.58031 50.7054 7.55566C50.6832 7.53108 50.661 7.50651 50.6388 7.48228C50.4095 7.2341 50.1747 6.98868 49.9246 6.74743C49.8303 6.65549 49.7309 6.56439 49.6317 6.47348L49.548 6.39664C49.5094 6.36114 49.4709 6.32558 49.4325 6.29003C49.2786 6.14783 49.1248 6.00563 48.9603 5.86698C48.5865 5.5467 48.196 5.23057 47.7806 4.92137C47.7778 4.9186 47.7681 4.91028 47.7639 4.90751C47.6528 4.81045 47.4082 4.6094 47.0594 4.34874C47.0581 4.34804 47.057 4.347 47.056 4.34596L47.056 4.34595C47.0549 4.34491 47.0539 4.34388 47.0525 4.34319C46.6968 4.07837 46.2341 3.76085 45.6839 3.43502L45.6809 3.433C45.6643 3.42148 45.651 3.4123 45.6352 3.40313ZM37.0093 7.2854C36.8856 8.66222 37.5804 9.99605 38.7809 10.6824C41.8016 12.41 45.6102 16.0385 48.6004 23.5882C48.6219 23.6429 48.6428 23.698 48.6636 23.7532L48.6639 23.7539C48.6846 23.8088 48.7054 23.8636 48.7268 23.9182C48.9756 24.5643 49.2201 25.2395 49.4563 25.9425C49.4725 25.9905 49.4889 26.0379 49.5053 26.0852C49.5324 26.1637 49.5595 26.242 49.5855 26.3224C49.8384 27.0947 50.0871 27.8905 50.322 28.7336C50.9861 27.1335 51.6864 25.0634 52.0686 22.784C52.6188 19.4937 52.3965 16.5418 51.4197 13.9407C51.4022 13.8956 51.3829 13.8504 51.3636 13.8053C51.3492 13.7714 51.3347 13.7375 51.321 13.7036C51.1195 13.1948 50.8819 12.7012 50.6207 12.22C50.5346 12.0606 50.4442 11.9011 50.3498 11.7431C50.1094 11.3396 49.8398 10.9486 49.5564 10.5659C49.5184 10.5146 49.4813 10.4632 49.4441 10.4117L49.444 10.4116L49.444 10.4116C49.3586 10.2934 49.2732 10.1753 49.1784 10.0584C48.8686 9.67715 48.524 9.31111 48.1696 8.95061C48.1127 8.89267 48.0588 8.83402 48.0049 8.77534L48.0048 8.77523C47.9271 8.69074 47.8494 8.60619 47.7625 8.52356C47.2442 8.03273 46.6871 7.55993 46.0812 7.11208C46.0465 7.08574 46.0132 7.05939 45.9812 7.03028C45.9764 7.02738 45.9588 7.01242 45.9303 6.98819L45.93 6.98798L45.8867 6.95125C45.6047 6.72247 45.0308 6.27878 44.286 5.83093C44.2236 5.79356 44.1584 5.75619 44.0932 5.71881L44.0929 5.71862C43.9262 5.62295 43.7469 5.52867 43.5663 5.43577C43.5276 5.41649 43.4895 5.39703 43.4514 5.37759L43.4514 5.37756L43.4512 5.37747C43.3825 5.34242 43.314 5.30741 43.2425 5.27355C43.0174 5.16679 42.7826 5.06973 42.5436 4.97961L42.5299 4.97404L42.5172 4.96852C42.5085 4.9647 42.4998 4.96089 42.4908 4.95742C42.4894 4.95742 42.4866 4.95604 42.4866 4.95604C41.7933 4.69953 41.0569 4.52205 40.3204 4.52205C39.8577 4.52205 39.395 4.58999 38.9462 4.74944C37.3553 5.31099 37.0621 6.70999 37.0093 7.2854ZM58.1726 40.2195C57.4236 42.2979 52.2019 46.8291 45.16 52.0812L45.1187 52.0641C45.0144 52.0206 44.9095 51.9769 44.7904 51.9634C42.5214 51.7152 39.5826 50.545 38.132 48.4901C37.6901 47.8634 36.8203 47.7151 36.195 48.156C35.567 48.5969 35.4169 49.4621 35.8602 50.0888C37.4011 52.2684 39.9119 53.5912 42.199 54.2539C37.7804 57.4499 32.8589 60.8108 27.9609 63.9929C27.7539 63.8112 27.508 63.6712 27.2134 63.6379C25.7892 63.4826 23.9495 62.7575 23.0533 61.4902C22.6114 60.8649 21.7458 60.7137 21.1163 61.1574C20.4897 61.5984 20.3396 62.4635 20.7828 63.0903C21.8027 64.5336 23.4062 65.4418 24.9263 65.9451C15.9308 71.6631 7.42986 76.4966 2.86818 78.1937C2.85484 78.1985 2.84202 78.2028 2.83009 78.2068L2.82979 78.2069C2.8145 78.2121 2.80065 78.2167 2.78898 78.2214C2.79453 78.1978 2.80287 78.1701 2.81399 78.1396C3.9353 75.1392 6.01814 71.0961 8.64845 66.5677C8.66833 66.5875 8.68537 66.6091 8.70234 66.6306C8.72805 66.6632 8.75363 66.6957 8.78878 66.7216C9.78644 67.4523 10.8466 68.0873 11.9388 68.6072C12.1319 68.6988 12.3361 68.7431 12.5376 68.7431C13.0559 68.7431 13.5533 68.452 13.7923 67.9542C14.123 67.2623 13.8298 66.4346 13.1379 66.1059C12.2014 65.6595 11.2913 65.1146 10.4325 64.4865C10.2978 64.388 10.1477 64.3284 9.99625 64.2854C13.249 58.86 17.1549 52.8993 21.1094 47.2284C21.6388 48.6025 22.5128 49.9918 23.8133 50.9082C24.0565 51.0802 24.3358 51.162 24.6137 51.162C25.05 51.162 25.4793 50.9582 25.7503 50.5755C26.1921 49.9502 26.0434 49.085 25.4168 48.6427C24.1454 47.747 23.4201 45.9126 23.2645 44.49C23.2593 44.4413 23.242 44.3979 23.2247 44.3541C23.2138 44.327 23.203 44.2997 23.195 44.271C26.2713 39.9575 29.3018 35.9227 32.0057 32.5507C32.6685 34.8356 33.9955 37.3494 36.1839 38.8898C36.4271 39.0618 36.7064 39.1436 36.9843 39.1436C37.4206 39.1436 37.8513 38.9398 38.1209 38.5571C38.5627 37.9304 38.4141 37.0666 37.7874 36.6243C35.7282 35.174 34.5554 32.2415 34.3067 29.98C34.3027 29.9455 34.2903 29.9147 34.2779 29.8839L34.2779 29.8838C34.2688 29.8614 34.2598 29.839 34.2539 29.815C37.3817 26.1019 39.8605 23.6131 41.0902 23.1722C41.7711 22.9282 42.4769 22.8062 43.2147 22.8062C43.9123 22.8062 44.6404 22.9157 45.4046 23.1348C46.0159 24.513 46.5745 26.0104 47.0831 27.6049L47.0994 27.6558L47.0996 27.6564C47.1274 27.7429 47.155 27.8289 47.1817 27.9169C47.3915 28.5907 47.5902 29.2868 47.782 29.9953C47.8015 30.0675 47.8213 30.1379 47.8411 30.2085C47.865 30.2938 47.889 30.3793 47.9126 30.4681C48.1321 31.3097 48.3419 32.1707 48.5351 33.0581C48.5428 33.0942 48.5569 33.1275 48.5712 33.1612C48.58 33.182 48.5888 33.2028 48.5962 33.2245C48.6023 33.2413 48.6078 33.2584 48.6133 33.2755C48.6255 33.3134 48.6378 33.3514 48.656 33.3867L48.6616 33.3997C48.6663 33.4106 48.6708 33.4215 48.6768 33.4325C48.6918 33.4598 48.7108 33.4833 48.7298 33.5067C48.7406 33.5201 48.7515 33.5334 48.7616 33.5476C48.7685 33.5573 48.7755 33.567 48.7838 33.5767C48.7951 33.5918 48.8056 33.6075 48.8162 33.6231L48.8162 33.6232C48.8356 33.6519 48.8549 33.6805 48.8783 33.7056C48.8825 33.7098 48.8859 33.7143 48.8894 33.7188C48.8929 33.7233 48.8964 33.7278 48.9005 33.732H48.9019C48.9061 33.7361 48.9102 33.7389 48.9144 33.7417C48.9407 33.7679 48.9708 33.7897 49.0013 33.8118C49.0159 33.8224 49.0306 33.833 49.045 33.8443C49.0498 33.8484 49.0546 33.8522 49.0594 33.8559C49.0644 33.8598 49.0693 33.8636 49.0742 33.8679C49.0875 33.8781 49.1002 33.889 49.1129 33.9C49.1348 33.9188 49.1566 33.9375 49.1812 33.9524C49.1909 33.9586 49.2011 33.963 49.2115 33.9676C49.2176 33.9703 49.2237 33.9729 49.2298 33.976C49.2511 33.988 49.2737 33.9976 49.2962 34.0071C49.3075 34.0119 49.3188 34.0167 49.3299 34.0218C49.3484 34.0298 49.3664 34.036 49.3846 34.0422L49.3847 34.0422C49.3978 34.0467 49.4109 34.0512 49.4244 34.0564C49.432 34.0591 49.4395 34.0621 49.4469 34.0653C49.4568 34.0697 49.4666 34.0743 49.4764 34.0789C49.5 34.0901 49.5235 34.1013 49.5494 34.1077C50.3484 34.3102 51.1251 34.5195 51.8838 34.7344C51.9817 34.762 52.0755 34.79 52.1692 34.818L52.1695 34.8181C52.2406 34.8393 52.3115 34.8605 52.384 34.8814C52.9787 35.0533 53.565 35.228 54.1333 35.4069C54.2588 35.4462 54.3781 35.4856 54.5001 35.5258L54.5599 35.5456C55.1518 35.7369 55.7326 35.931 56.2926 36.1293C56.3899 36.1639 56.4857 36.1972 56.5816 36.2319C57.2249 36.4634 57.8502 36.6978 58.4491 36.9376C58.4497 36.9376 58.4504 36.9379 58.451 36.9383C58.4514 36.9384 58.4518 36.9386 58.4522 36.9388C58.4525 36.9389 58.4529 36.939 58.4532 36.939C58.6353 38.1106 58.5436 39.1893 58.1726 40.2195ZM74.6866 43.9257C75.5064 43.9174 76.6486 43.6678 77.435 42.5378C78.7134 40.702 77.5017 38.7138 77.0293 38.069C77.0271 38.0653 77.0236 38.0628 77.0201 38.0602C77.017 38.0579 77.0138 38.0556 77.0113 38.0524L76.8348 37.8181C75.9219 36.6215 74.9645 35.6052 73.978 34.7497C73.8855 34.6697 73.7915 34.5991 73.6975 34.5284C73.6334 34.4802 73.5692 34.432 73.5056 34.3809L73.4723 34.3539C73.1568 34.098 72.8412 33.842 72.5204 33.6183C66.0885 29.1648 58.6714 30.6913 54.3362 32.2692C54.3148 32.2766 54.2926 32.2773 54.2702 32.278C54.2505 32.2786 54.2307 32.2793 54.2111 32.2844C54.1599 32.3039 54.1065 32.3231 54.0533 32.3423C53.9852 32.3668 53.9172 32.3913 53.854 32.4162C53.9837 32.4547 54.1057 32.4949 54.2278 32.5352C54.3255 32.5674 54.4233 32.5997 54.5252 32.6311C55.1352 32.8196 55.7368 33.0096 56.3176 33.2065C56.7414 33.3493 57.1499 33.4949 57.5556 33.6405C57.9544 33.7847 58.3435 33.9302 58.727 34.0772C59.1702 34.2464 59.6107 34.4169 60.0317 34.5916C60.0588 34.6027 60.087 34.6135 60.1151 34.6242C60.1433 34.635 60.1714 34.6457 60.1984 34.6568C60.2037 34.659 60.2078 34.6625 60.2117 34.6659C60.215 34.6687 60.2183 34.6715 60.2221 34.6734C65.0658 36.7033 68.4979 39.0424 70.4209 41.674C71.438 43.0661 73.0484 43.9257 74.6366 43.9257H74.6866Z" fill="#FFC700"/>
</svg>
