<svg width="105" height="106" viewBox="0 0 105 106" fill="none" xmlns="http://www.w3.org/2000/svg">
<path fill-rule="evenodd" clip-rule="evenodd" d="M39.1716 30.3568L76.0143 15.4714C77.0179 15.0745 77.8175 14.287 78.2306 13.2884C78.7182 12.1733 78.678 10.8965 78.1213 9.81242C77.0949 7.90538 74.792 7.08882 72.8006 7.92584L36.1217 22.8221C34.9788 21.4778 33.1068 21.0157 31.4745 21.6747L20.9362 25.9324L18.8696 23.3861C18.3941 22.7999 17.535 22.7102 16.9507 23.1855C16.3664 23.6608 16.2784 24.5213 16.7538 25.1075L18.2909 27.0012L15.8806 27.975L13.8139 25.4287C13.3385 24.8425 12.4794 24.7528 11.8951 25.2281C11.3108 25.7034 11.2227 26.5639 11.6982 27.1501L13.2351 29.0438L11.2522 29.845C10.5542 30.127 10.2176 30.923 10.5003 31.6227C10.783 32.3224 11.5781 32.6612 12.2761 32.3792L15.0368 31.2638L16.8386 33.4838L13.3 34.9135C12.602 35.1955 12.2654 35.9914 12.5482 36.6912C12.8309 37.3911 13.6259 37.7297 14.3239 37.4477L18.64 35.7039L20.4417 37.924L15.3479 39.982C14.6498 40.2641 14.3132 41.0599 14.596 41.7597C14.8787 42.4596 15.6737 42.7982 16.3717 42.5162L22.2435 40.1439L23.4091 41.5803C23.7167 41.9595 24.2025 42.1458 24.6835 42.0691C25.1646 41.9924 25.5679 41.6643 25.7414 41.2085C25.9149 40.7527 25.8322 40.2382 25.5247 39.8589L24.8886 39.0752L27.3243 38.0911C28.5908 39.6268 30.0194 41.0207 31.5854 42.2481C33.4046 43.6485 38.1142 46.876 42.5509 46.6033C43.9753 46.4819 45.3709 47.0626 46.2921 48.16C45.95 48.2759 45.608 48.3919 45.2648 48.5305C40.1172 50.487 35.9692 54.4277 33.7466 59.4737C25.4852 64.8225 24.9312 74.2169 24.9934 77.3566L23.7583 77.8556C22.4299 78.392 21.4799 79.5864 21.254 81.0039C21.0283 82.4214 21.5597 83.8552 22.6549 84.7832L34.6522 94.958C39.2888 98.9032 45.7249 99.9443 51.3545 97.6598L82.5961 85.0374C88.2326 82.7699 92.1392 77.5502 92.7339 71.4915L94.2961 55.8383C94.4392 54.4105 93.8261 53.0106 92.6799 52.1477C91.5338 51.2849 90.0215 51.0849 88.6935 51.6206C85.9978 48.8115 75.7006 39.1817 64.9311 43.5329C62.4181 44.5259 60.1679 46.0852 58.3548 48.0904C55.3714 47.167 52.217 46.9432 49.136 47.4366C47.7352 45.066 45.1203 43.688 42.3794 43.8761C38.7638 44.0989 34.4741 41.0293 33.2461 40.0832C32.0775 39.1576 30.9958 38.1271 30.0142 37.0045L36.5936 34.3462C38.2066 33.6939 39.237 32.099 39.1716 30.3568ZM38.2692 60.2012C47.5103 56.4676 54.9806 61.4204 58.0343 64.0076L55.1209 65.1846C50.6456 61.6173 44.6244 60.6857 39.2931 62.7356C34.1845 64.7844 30.7418 69.6303 30.4805 75.14L27.7054 76.2612C27.7801 72.4843 29.011 63.9417 38.2692 60.2012ZM48.0085 56.2801C47.9441 56.3102 47.8796 56.3404 47.814 56.3695C52.6911 57.2295 57.2166 59.4888 60.8416 62.8733L65.1144 61.147C61.3356 58.0041 54.5564 53.6208 48.337 56.1335C48.2239 56.1792 48.1162 56.2296 48.0085 56.2801ZM52.0444 66.4274L33.3771 73.9695C33.949 70.0235 36.6022 66.6974 40.317 65.2697C44.1825 63.7531 48.5423 64.1834 52.0444 66.4274ZM91.583 55.5614C91.6348 55.0845 91.429 54.6156 91.0428 54.3309C90.6625 54.039 90.156 53.9722 89.7142 54.1559L83.3765 56.7165L83.364 56.7252L83.3408 56.7309L24.7823 80.3901C24.3397 80.5693 24.0233 80.9674 23.9481 81.4397C23.8729 81.9119 24.0497 82.3897 24.4144 82.6993L36.412 92.874C40.2759 96.1618 45.6394 97.0294 50.3309 95.1257L81.5726 82.5032C86.2698 80.6135 89.5252 76.2637 90.0208 71.2146L91.583 55.5614ZM73.5184 57.7514C71.3665 55.5605 68.9862 53.6072 66.4186 51.9252C66.9252 51.6205 67.455 51.3566 68.0032 51.1357C72.2579 49.4168 77.2599 52.5702 80.273 55.0224L73.5184 57.7514ZM85.9348 52.7348C82.7014 49.6353 74.2348 42.7221 65.9554 46.0672C64.1766 46.7681 62.545 47.7961 61.1441 49.0979C62.0785 49.4918 62.981 49.9254 63.8422 50.3898C64.8009 49.6522 65.8564 49.0504 66.9793 48.6014C72.9963 46.1704 79.4484 50.5922 83.1296 53.8682L85.9348 52.7348ZM70.753 58.8687L67.9594 59.9974C64.0801 56.5289 55.5349 50.2774 47.3131 53.5992C45.679 54.2505 44.1554 55.1505 42.7957 56.2675C41.1735 56.4442 39.5787 56.8149 38.0452 57.3718C40.1261 54.5149 42.9894 52.3245 46.2892 51.065C56.664 46.8731 67.0723 55.3752 70.753 58.8687ZM17.6822 30.1951L19.4839 32.4152L21.8946 31.4413L20.0927 29.2212L17.6822 30.1951ZM23.0872 36.8553L21.2855 34.6352L23.6963 33.6612L25.4981 35.8812L23.0872 36.8553ZM28.1433 34.8125L29.2507 34.3651C29.9481 34.0824 30.2846 33.287 30.0025 32.5872C29.872 32.2558 29.6129 31.9914 29.2844 31.8546C28.95 31.7007 28.5673 31.6921 28.2267 31.8308L26.3414 32.5925L28.1433 34.8125ZM27.2029 29.2966L24.5397 30.3726L22.7379 28.1525L26.1788 26.7623C26.5194 26.6237 26.9021 26.6323 27.2364 26.7861C27.5649 26.9229 27.8241 27.1873 27.9546 27.5188C28.2367 28.2185 27.9003 29.0139 27.2029 29.2966ZM30.4825 26.4974C30.8617 27.4334 30.8817 28.4765 30.5382 29.425C31.4472 29.8625 32.1586 30.627 32.5302 31.5661C32.7049 31.9975 32.805 32.4556 32.8262 32.9205L35.57 31.8119C36.1146 31.5907 36.4562 31.0447 36.418 30.4567C36.368 29.2963 37.0648 28.2352 38.1477 27.8226L74.9904 12.9372C75.3215 12.8069 75.585 12.5472 75.7205 12.2176C75.8915 11.8433 75.8804 11.4108 75.6904 11.0452L75.6899 11.0438C75.3026 10.4068 74.5035 10.1569 73.8246 10.4602L37.1238 25.2883C36.0582 25.7437 34.8202 25.4646 34.0499 24.5956C33.6691 24.1456 33.0439 23.99 32.4982 24.2091L29.757 25.3166C30.0635 25.6666 30.3088 26.0658 30.4825 26.4974Z" fill="#FFC700"/>
</svg>
