<svg width="45" height="57" viewBox="0 0 45 57" fill="none" xmlns="http://www.w3.org/2000/svg">
<path fill-rule="evenodd" clip-rule="evenodd" d="M41.7662 25.0211C41.9662 25.0471 42.1622 25.1151 42.3362 25.2341C42.7172 25.4961 42.9302 25.9271 42.9022 26.3881C42.9022 26.3941 42.9012 26.4001 42.9012 26.4061L41.1562 51.4341C41.0022 54.4491 38.5022 56.8241 35.4662 56.8241H7.39517C4.35917 56.8241 1.85917 54.4491 1.70417 51.4161L0.00216846 27.2291C-0.0158315 26.8711 0.0791685 26.5351 0.252168 26.2461C-0.105832 24.8201 -0.0428315 23.5751 0.494168 22.5601C1.38617 20.8781 3.29817 20.1341 4.88417 19.6771C4.25017 18.9571 3.37917 18.3371 2.44217 18.3371C2.42861 18.3371 2.41524 18.3376 2.40174 18.3382L2.40164 18.3382C2.3833 18.3389 2.36473 18.3397 2.34517 18.3391C1.80717 18.3391 1.36317 17.9111 1.34617 17.3701C1.32917 16.8181 1.76317 16.3571 2.31517 16.3391C3.89417 16.2811 5.30017 17.1721 6.29917 18.2621C6.08617 17.7741 5.97317 17.2461 5.97317 16.6981C5.97317 15.7851 6.28517 14.9151 6.84817 14.2201C6.62517 13.6431 6.50917 13.0311 6.50917 12.4131C6.50917 10.0821 8.08917 8.12211 10.2582 7.56211C10.2732 5.53411 11.6672 3.78911 13.5682 3.27111C13.9492 1.64811 15.4102 0.435107 17.1492 0.435107C17.7712 0.435107 18.3772 0.595107 18.9172 0.896107C19.5512 0.525107 20.2932 0.370107 21.0422 0.459107C22.3712 0.617107 23.5202 1.59711 23.9012 2.89911C23.9322 3.00211 23.9572 3.10411 23.9772 3.20811C25.8272 3.58511 27.2992 5.03911 27.6852 6.89511C29.3232 7.67311 30.4752 9.16411 30.8542 10.9071L30.8902 10.8309L30.8907 10.8298C30.9748 10.6521 31.0597 10.4725 31.1462 10.2891C32.8622 6.64511 34.9982 2.11211 37.9852 0.571107C39.8912 -0.409893 41.3592 0.0541068 42.2552 0.617107C44.1222 1.78811 45.0482 4.31811 44.9992 6.21311C44.8432 12.2381 43.7532 18.5641 41.7662 25.0211ZM32.9552 11.1411C32.4982 12.1121 32.0662 13.0281 31.6702 13.7671C30.6112 15.7451 29.6492 17.8081 28.7772 19.9351C28.6887 20.152 28.6037 20.3718 28.5186 20.5915L28.5186 20.5915L28.5186 20.5916L28.5185 20.5917L28.5185 20.5918L28.5185 20.5919L28.5184 20.5919C28.4804 20.6901 28.4424 20.7882 28.4042 20.8861C28.1262 21.5951 27.8572 22.3091 27.6002 23.0321C27.4782 23.3751 27.3562 23.7191 27.2392 24.0651C26.9312 24.9761 26.6372 25.8941 26.3632 26.8251C26.3523 26.861 26.341 26.8967 26.3296 26.9324C26.3137 26.9824 26.2977 27.0324 26.2832 27.0831C26.7272 27.0331 27.1662 26.9171 27.5632 26.6791L28.2752 26.2511C29.1052 25.7521 30.0372 25.5091 30.9672 25.5151C30.9732 25.5151 30.979 25.5146 30.9847 25.5141C30.9902 25.5136 30.9957 25.5131 31.0012 25.5131C31.9202 25.5131 32.8392 25.7591 33.6592 26.2511L34.3722 26.6791C34.8642 26.9741 35.4152 27.1201 35.9672 27.1261C36.5192 27.1201 37.0712 26.9741 37.5632 26.6791C37.5982 26.6571 37.6342 26.6391 37.6712 26.6221L39.3752 25.8651C39.5802 25.2861 39.7242 24.8641 39.7892 24.6551C41.7672 18.2951 42.8472 12.0731 43.0002 6.16111C43.0332 4.87511 42.3512 3.03811 41.1922 2.31011C40.5202 1.89111 39.7712 1.90011 38.9012 2.34811C36.5182 3.57811 34.4582 7.94911 32.9552 11.1411ZM18.9222 16.1391L18.9364 16.1209L18.9366 16.1207L18.9369 16.1203C19.0487 15.9769 19.1577 15.8372 19.2612 15.7011C19.2612 15.6991 19.2622 15.6981 19.2632 15.6971C19.3422 15.5921 19.4112 15.4831 19.4692 15.3741C19.7152 14.9111 19.7732 14.3911 19.6592 13.8831L23.8332 12.9701C23.8612 13.0981 23.8912 13.2251 23.9392 13.3431C24.1262 13.8011 24.4602 14.1821 24.9252 14.4481C25.064 14.5248 25.2087 14.6016 25.3577 14.6806L25.3581 14.6808L25.4002 14.7031C25.5144 14.7632 25.6286 14.8254 25.7435 14.888L25.8062 14.9221L25.8569 14.9493C25.9053 14.9753 25.954 15.0014 26.0022 15.0281C26.1038 15.0853 26.2024 15.1476 26.3013 15.21L26.3522 15.2421C26.4512 15.3031 26.5492 15.3661 26.6452 15.4331C26.7562 15.5101 26.8622 15.5951 26.9682 15.6811C27.0612 15.7571 27.1502 15.8401 27.2382 15.9251C27.3332 16.0181 27.4272 16.1131 27.5142 16.2171C27.6682 16.4011 27.8162 16.5921 27.9372 16.8211C27.5132 17.7571 27.1142 18.7121 26.7282 19.6751C26.7006 19.7436 26.6722 19.8112 26.6438 19.8788L26.6437 19.8789L26.6437 19.8791L26.6436 19.8792C26.6103 19.9585 26.577 20.0377 26.5452 20.1181C25.4492 20.3961 24.3902 20.9161 23.0822 21.8471C21.4342 23.0181 20.2072 23.3291 18.1852 23.0361L17.5782 20.2571C17.1664 18.3791 18.0582 17.2413 18.9208 16.1409L18.9222 16.1391ZM23.9592 10.0581C23.9332 10.0581 23.9072 10.0611 23.8812 10.0661L21.2862 10.6341L18.3512 11.2761C18.1322 11.3241 17.9872 11.5491 18.0352 11.7681C18.0832 11.9861 18.3072 12.1321 18.5272 12.0841L24.0512 10.8751C24.1942 10.8441 24.2732 10.7491 24.3082 10.6951C24.3442 10.6401 24.3982 10.5271 24.3662 10.3831C24.3252 10.1931 24.1482 10.0581 23.9592 10.0581ZM20.6492 25.5331C20.6237 25.5348 20.5981 25.5361 20.5725 25.5375C20.5217 25.5401 20.4707 25.5428 20.4202 25.5481C19.8752 25.6031 19.3372 25.7411 18.8262 25.9711L18.6352 25.0961L18.6384 25.0964C18.9253 25.1203 19.2112 25.1441 19.4792 25.1441C21.2232 25.1441 22.6272 24.6251 24.2412 23.4771C24.7492 23.1151 25.1992 22.8411 25.6272 22.6141C25.5352 22.8751 25.4442 23.1351 25.3552 23.3971C25.3284 23.4757 25.3008 23.5538 25.2731 23.6319L25.273 23.6322L25.273 23.6324L25.2729 23.6325L25.2729 23.6326C25.2345 23.741 25.1962 23.8494 25.1602 23.9591C24.8662 24.8491 24.5862 25.7461 24.3252 26.6511L23.6602 26.2531C22.8402 25.7611 21.9212 25.5151 21.0022 25.5151C20.9984 25.5151 20.9946 25.5153 20.9908 25.5156C20.9884 25.5157 20.9861 25.5159 20.9837 25.5161L20.9837 25.5161C20.9774 25.5166 20.9712 25.5171 20.9652 25.5171C20.8908 25.5157 20.817 25.5212 20.7433 25.5267C20.7119 25.529 20.6805 25.5313 20.6492 25.5331ZM9.34317 14.6521L8.68817 15.1921C8.23517 15.5641 7.97517 16.1131 7.97417 16.6981C7.97417 16.9471 8.02217 17.1891 8.11317 17.4141C8.55517 17.1251 9.02717 16.8861 9.52517 16.7171C9.54293 16.711 9.56031 16.706 9.57778 16.701L9.57781 16.701L9.57784 16.7009C9.58888 16.6978 9.59995 16.6946 9.61117 16.6911C9.80017 16.6311 9.99117 16.5811 10.1882 16.5451C10.2382 16.5358 10.2882 16.53 10.3382 16.5242C10.3632 16.5213 10.3882 16.5184 10.4132 16.5151C10.5642 16.4961 10.7142 16.4781 10.8692 16.4761C10.8818 16.4761 10.8944 16.4746 10.9069 16.4731L10.9069 16.4731L10.907 16.4731C10.9192 16.4716 10.9313 16.4701 10.9432 16.4701C10.99 16.4701 11.0365 16.4759 11.0831 16.4818C11.116 16.4859 11.149 16.49 11.1822 16.4921C11.226 16.4952 11.2692 16.496 11.3124 16.4969H11.3124H11.3125C11.3817 16.4983 11.4508 16.4996 11.5222 16.5101C11.5403 16.5128 11.5581 16.5177 11.5759 16.5226L11.5759 16.5226C11.5916 16.527 11.6073 16.5313 11.6232 16.5341C11.6318 16.5355 11.6404 16.5358 11.6491 16.5361C11.6594 16.5365 11.6698 16.5369 11.6802 16.5391C11.8462 16.5701 12.0112 16.6121 12.1752 16.6641C12.2037 16.6732 12.2323 16.685 12.2608 16.6967L12.2609 16.6968C12.2823 16.7056 12.3037 16.7144 12.3252 16.7221C12.4762 16.7761 12.6262 16.8381 12.7752 16.9111C12.8462 16.9451 12.9152 16.9821 12.9852 17.0201C13.1292 17.0981 13.2712 17.1861 13.4132 17.2811C13.435 17.2959 13.4569 17.31 13.4789 17.3242C13.5104 17.3444 13.542 17.3647 13.5732 17.3871C13.7622 17.5231 13.9502 17.6761 14.1372 17.8431C14.1665 17.8695 14.1955 17.8976 14.2243 17.9256L14.2245 17.9258C14.2438 17.9445 14.263 17.9631 14.2822 17.9811C14.4302 18.1211 14.5772 18.2701 14.7242 18.4291C14.7802 18.4891 14.8362 18.5501 14.8912 18.6131C15.0662 18.8131 15.2402 19.0241 15.4142 19.2531C15.4222 19.2642 15.4305 19.2745 15.4391 19.285L15.4391 19.285L15.4392 19.2851C15.4445 19.2916 15.4498 19.2982 15.4552 19.3051L15.4672 19.3201C15.4672 19.2365 15.4741 19.158 15.481 19.0793V19.0792C15.4843 19.0421 15.4876 19.0049 15.4902 18.9671C15.4922 18.937 15.4937 18.9068 15.4952 18.8767V18.8767C15.4984 18.8157 15.5015 18.755 15.5082 18.6961C15.5332 18.4761 15.5722 18.2651 15.6202 18.0611C15.6242 18.0435 15.6273 18.0256 15.6303 18.0076C15.634 17.9858 15.6377 17.964 15.6432 17.9431C15.7052 17.7031 15.7832 17.4751 15.8712 17.2571C15.8893 17.2105 15.9098 17.1667 15.9304 17.1229L15.9304 17.1228L15.9304 17.1228L15.9305 17.1227C15.9394 17.1036 15.9484 17.0845 15.9572 17.0651C16.0242 16.9151 16.0922 16.7681 16.1672 16.6281C16.2072 16.5531 16.2482 16.4821 16.2902 16.4101C16.3622 16.2861 16.4352 16.1651 16.5112 16.0481L16.524 16.0283L16.524 16.0283L16.5241 16.0282C16.5636 15.967 16.6026 15.9067 16.6432 15.8481C16.7252 15.7281 16.8082 15.6131 16.8912 15.5001C16.9083 15.4773 16.925 15.4543 16.9417 15.4313L16.942 15.431L16.942 15.4309C16.9632 15.4017 16.9844 15.3726 17.0062 15.3441C17.1222 15.1921 17.2362 15.0451 17.3462 14.9051L17.3954 14.8424L17.3955 14.8423L17.3957 14.842C17.4875 14.7251 17.5772 14.6109 17.6612 14.4981V14.4971C17.7192 14.4011 17.7342 14.3631 17.7082 14.2891C17.6632 14.1601 17.5332 14.0331 17.3772 13.9661C16.7482 13.6961 16.2852 13.1351 16.1402 12.4691L16.0812 12.1981C16.0812 12.1961 16.0802 12.1951 16.0802 12.1941V12.1911L16.0202 11.9191C15.8992 11.3641 16.0012 10.7931 16.3092 10.3141C16.6172 9.83311 17.0922 9.50211 17.6472 9.38111L20.5112 8.75611L23.4462 8.11411C23.4469 8.11386 23.4477 8.11373 23.4484 8.11367C23.4492 8.11361 23.4499 8.11361 23.4507 8.11361H23.451C23.4524 8.1136 23.4538 8.11357 23.4552 8.11311L23.7232 8.05411C24.2782 7.93211 24.8482 8.03511 25.3272 8.34211C25.8072 8.65011 26.1392 9.12511 26.2602 9.68111L26.3812 10.2321C26.5222 10.8831 26.3472 11.5731 25.9112 12.0791C25.8022 12.2061 25.7482 12.3791 25.7722 12.5231C25.7902 12.6281 25.8422 12.6701 25.8852 12.6941C26.0269 12.7728 26.1677 12.8473 26.3125 12.9238L26.3472 12.9421C26.9532 13.2611 27.6742 13.6441 28.3432 14.2121C28.7562 13.6151 28.9842 12.9341 28.9992 12.2271C29.0342 10.5721 28.0062 9.09311 26.4432 8.54411L25.8222 8.32611L25.7772 7.66911C25.6782 6.23511 24.4762 5.11211 23.0392 5.11211H21.9132L22.0302 3.99511C22.0512 3.81811 22.0362 3.64411 21.9832 3.46411C21.8272 2.92711 21.3432 2.50911 20.8072 2.44611C20.3712 2.39611 19.9482 2.53811 19.6402 2.84211L18.9682 3.50611L18.2672 2.87311C18.0462 2.67311 17.6722 2.43511 17.1502 2.43511C16.2432 2.43511 15.5022 3.15811 15.4732 4.05711V5.05211L14.5492 5.12211C13.2652 5.22011 12.2592 6.30511 12.2592 7.59311C12.2592 7.77811 12.2832 7.97311 12.3312 8.17111L12.6142 9.35311L11.4002 9.40411C9.78017 9.47211 8.51117 10.7931 8.51117 12.4131C8.51117 12.9391 8.65217 13.4591 8.91817 13.9191L9.34317 14.6521ZM2.26317 23.4951C2.68617 22.6981 3.71317 22.0901 5.49617 21.5801C6.33017 21.3421 7.10417 20.8971 7.73217 20.2971C8.01717 20.0241 8.28417 19.7931 8.54217 19.5831C9.34817 18.9281 10.0432 18.5721 10.6722 18.4911C10.6862 18.4891 10.7002 18.4871 10.7142 18.4861C10.9132 18.4641 11.1062 18.4701 11.2932 18.5031C11.3254 18.509 11.3581 18.5184 11.391 18.5279L11.391 18.5279C11.408 18.5328 11.4251 18.5377 11.4422 18.5421C11.5352 18.5651 11.6272 18.5881 11.7202 18.6251C11.7571 18.6393 11.794 18.6579 11.8311 18.6768C11.8544 18.6885 11.8777 18.7003 11.9012 18.7111L11.952 18.7354L11.9521 18.7354C12.0218 18.7685 12.0912 18.8015 12.1612 18.8441C12.2065 18.8714 12.2518 18.9041 12.2972 18.9368C12.3198 18.9531 12.3425 18.9694 12.3652 18.9851C12.3873 19.0007 12.4094 19.0159 12.4315 19.0311C12.4905 19.0715 12.5496 19.1121 12.6092 19.1601C12.664 19.2042 12.7189 19.255 12.7738 19.3058L12.7738 19.3058C12.7949 19.3254 12.8161 19.3449 12.8372 19.3641C12.86 19.3848 12.8828 19.405 12.9056 19.4251C12.9588 19.4722 13.012 19.5192 13.0652 19.5731C13.1293 19.638 13.1939 19.711 13.2587 19.7841L13.3192 19.8521C13.3436 19.8794 13.3681 19.906 13.3926 19.9326C13.4372 19.981 13.482 20.0295 13.5272 20.0831C13.6018 20.1727 13.6771 20.2722 13.7525 20.3719L13.8142 20.4531C13.8364 20.4823 13.8585 20.5104 13.8806 20.5384C13.919 20.5873 13.9574 20.6361 13.9962 20.6901C14.0986 20.8329 14.2018 20.9907 14.3052 21.1486L14.3052 21.1486L14.3252 21.1791C14.3469 21.2126 14.3688 21.2444 14.3907 21.2762L14.3907 21.2763C14.4173 21.3149 14.4439 21.3535 14.4702 21.3951C14.6292 21.6461 14.7892 21.9131 14.9502 22.1971C15.6862 23.4961 15.9302 25.4151 15.6102 27.0861C15.5596 27.0813 15.51 27.0738 15.4595 27.0662L15.4522 27.0651C15.0712 27.0001 14.7042 26.8781 14.3702 26.6781L13.6572 26.2501C12.8372 25.7581 11.9182 25.5121 10.9992 25.5121C10.9938 25.5121 10.9884 25.5126 10.9829 25.5131H10.9829C10.9772 25.5136 10.9713 25.5141 10.9652 25.5141C10.0352 25.5081 9.10317 25.7511 8.27317 26.2501L7.92617 26.4581C7.32117 26.8211 6.64317 27.0041 5.96517 27.0101C5.28617 27.0041 4.60917 26.8221 4.00417 26.4581L2.65917 25.6501C2.65917 25.6501 2.65887 25.6501 2.6586 25.6499C2.65838 25.6498 2.65817 25.6496 2.65817 25.6491C2.48117 25.5441 2.29017 25.4721 2.09417 25.4361C1.93717 24.6451 1.99317 24.0051 2.26317 23.4951ZM35.4702 54.8231C37.4402 54.8231 39.0632 53.2811 39.1642 51.3131L40.8292 27.4071L40.6762 27.4751C40.6598 27.4852 40.645 27.4973 40.6303 27.5095C40.6099 27.5263 40.5896 27.5431 40.5652 27.5541L38.6032 28.4261C37.7972 28.8961 36.8982 29.1301 36.0002 29.1301C35.9927 29.1301 35.9849 29.1294 35.9772 29.1286C35.9694 29.1279 35.9617 29.1271 35.9542 29.1271C35.0282 29.1311 34.1012 28.8881 33.2752 28.3931L32.5622 27.9651C32.0692 27.6691 31.5182 27.5231 30.9662 27.5171C30.4142 27.5231 29.8632 27.6691 29.3712 27.9651L28.6582 28.3931C28.2532 28.6361 27.8182 28.7971 27.3742 28.9201C27.3151 28.9375 27.2555 28.9515 27.1957 28.9655C27.1766 28.97 27.1574 28.9745 27.1382 28.9791C27.1059 28.9864 27.0737 28.9939 27.0416 29.0015C26.9113 29.0319 26.7813 29.0623 26.6482 29.0791C26.3582 29.1201 26.0662 29.1291 25.7742 29.1201C25.7627 29.1201 25.7507 29.1192 25.739 29.1183C25.7333 29.1179 25.7277 29.1174 25.7222 29.1171C24.8752 29.0821 24.0332 28.8471 23.2762 28.3941L22.5632 27.9661C22.0702 27.6701 21.5192 27.5241 20.9672 27.5181C20.4152 27.5241 19.8642 27.6701 19.3722 27.9661L18.6592 28.3941C18.6262 28.4137 18.5902 28.4216 18.554 28.4297C18.5309 28.4348 18.5077 28.4399 18.4852 28.4481C17.8672 28.8001 17.1972 29.0151 16.5142 29.0921C16.508 29.0926 16.5023 29.0945 16.4968 29.0963C16.4916 29.098 16.4865 29.0996 16.4812 29.1001C16.4206 29.1054 16.3604 29.1072 16.3004 29.109C16.2703 29.1099 16.2402 29.1108 16.2102 29.1121C15.2002 29.1671 14.1782 28.9351 13.2762 28.3941L12.5632 27.9661C12.0702 27.6701 11.5192 27.5241 10.9672 27.5181C10.4152 27.5241 9.86417 27.6701 9.37217 27.9661L9.02517 28.1741C8.08217 28.7401 7.02417 29.0181 5.96717 29.0121C4.91117 29.0181 3.85217 28.7401 2.90917 28.1741L2.03917 27.6521L3.70317 51.2941C3.80517 53.2811 5.42717 54.8231 7.39817 54.8231H35.4702Z" fill="#FFC700"/>
</svg>
