<svg width="75" height="75" viewBox="0 0 75 75" fill="none" xmlns="http://www.w3.org/2000/svg">
<path fill-rule="evenodd" clip-rule="evenodd" d="M69.444 49.2988C69.4188 49.3592 69.3936 49.4193 69.3779 49.4861C69.3634 49.5454 69.3575 49.6099 69.3516 49.6742C69.3489 49.7041 69.3461 49.7339 69.3426 49.7631C69.3384 49.7962 69.3335 49.8288 69.3286 49.8615L69.3285 49.8618V49.8619V49.8619C69.3167 49.94 69.3049 50.0184 69.3029 50.1031C69.2987 50.3312 69.3157 50.5746 69.3567 50.8251C69.3811 50.9708 69.4235 51.1147 69.4661 51.259L69.4789 51.3022L69.494 51.3539C69.6765 51.9779 69.9751 52.5851 70.3798 53.1322C71.226 54.2724 72.4656 55.1469 73.7194 55.3791C73.7283 55.3808 73.7372 55.3831 73.746 55.3856C73.7507 55.3869 73.7553 55.3883 73.7599 55.3896C73.7761 55.3944 73.7923 55.3992 73.8085 55.4015C74.1524 55.4561 74.4495 55.6309 74.6618 55.8772C74.8741 56.122 75 56.4396 75 56.7838V68.4522C75 70.4823 74.0731 72.3613 72.4543 73.6107C71.2727 74.5229 69.8506 75 68.3945 75C67.8553 75 67.3119 74.9356 66.7742 74.8013L4.9584 56.7978C2.06175 56.0856 0 53.4735 0 50.4641V47.4378C0 46.9006 0.311315 46.4095 0.802343 46.1773C1.29479 45.9422 1.87638 46.0122 2.30231 46.3479C2.86127 46.7929 3.43154 47.1063 3.99332 47.2783C4.91028 47.5596 5.72395 47.4868 6.28998 47.0741C6.79657 46.7047 7.07534 46.0597 7.07534 45.2595C7.07534 43.1846 5.28103 40.8845 3.15702 40.2339C2.64335 40.0758 2.141 40.038 1.66978 40.1262C1.25375 40.1989 0.83206 40.0898 0.509424 39.8254C0.186789 39.5581 0 39.165 0 38.7495V16.7193V16.7067L0.00141507 16.7011C0.00707534 14.0107 1.54667 11.6266 3.92681 10.6095L24.8557 0.626944C27.8712 -0.67981 31.9112 0.0966871 35.2041 2.57868C35.2437 2.60806 35.2819 2.64024 35.3187 2.67382L39.5356 6.61647C39.9884 7.04179 40.1073 7.71056 39.8257 8.2632C39.6898 8.52903 39.6205 8.84383 39.6205 9.1978C39.6205 10.9103 41.1049 12.8117 42.8624 13.3503C43.6138 13.5812 44.269 13.507 44.7119 13.146C45.2609 12.6969 46.0633 12.7249 46.5826 13.2104L71.1694 36.2059C73.5679 38.0597 74.9986 40.9558 74.9986 43.9667V47.0923C74.9986 47.2294 74.9731 47.3609 74.9349 47.4896C74.8387 47.8044 74.6377 48.0842 74.3491 48.2675C74.3258 48.2829 74.3004 48.2935 74.2748 48.3043L74.2747 48.3043L74.2747 48.3044C74.2583 48.3112 74.2419 48.3181 74.226 48.3263C74.2122 48.3334 74.1984 48.3407 74.1847 48.348C74.1336 48.3752 74.0825 48.4024 74.0278 48.42C74.0208 48.4214 74.0151 48.4214 74.0095 48.4228C73.9033 48.4564 73.7944 48.4788 73.684 48.4858C73.6763 48.4866 73.6687 48.4859 73.6611 48.4853L73.6527 48.4846L73.6458 48.4844C73.5425 48.4886 73.4392 48.4858 73.3359 48.4676C73.3291 48.4663 73.3224 48.4646 73.3157 48.4626C73.3065 48.4599 73.2974 48.4567 73.2883 48.4535L73.2738 48.4485C73.2682 48.4466 73.2626 48.4449 73.2569 48.4433C73.254 48.4425 73.2511 48.4417 73.2481 48.441C73.1632 48.4214 73.0798 48.4018 72.9991 48.3654C72.9578 48.3477 72.916 48.3321 72.8743 48.3165L72.8743 48.3165C72.8403 48.3038 72.8063 48.2911 72.7727 48.2773L72.7157 48.2539L72.7156 48.2538C72.6114 48.2109 72.5076 48.1682 72.4118 48.1374C72.2194 48.0758 72.0453 48.0339 71.8699 48.0059C71.8684 48.0056 71.8668 48.0053 71.8653 48.005C71.8636 48.0047 71.8619 48.0043 71.8602 48.0038C71.8554 48.0026 71.8506 48.0012 71.8458 47.9998L71.8457 47.9998C71.8418 47.9987 71.8379 47.9975 71.8341 47.9965C71.8283 47.995 71.8227 47.9937 71.8175 47.9933H71.8161C71.8048 47.9919 71.7938 47.9919 71.7828 47.9919C71.7719 47.9919 71.7609 47.9919 71.7496 47.9905C71.5543 47.9681 71.3633 47.9583 71.1821 47.9737C71.1738 47.9744 71.1658 47.9756 71.1579 47.9769C71.1364 47.9806 71.1162 47.9856 71.0944 47.9877C70.8779 48.0115 70.6784 48.0632 70.4944 48.1388C70.4854 48.1426 70.4761 48.1463 70.4668 48.15C70.4619 48.1519 70.457 48.1538 70.4521 48.1557C70.4256 48.166 70.399 48.1764 70.3741 48.1892C70.1817 48.2829 70.0105 48.4032 69.8675 48.5557C69.7586 48.6718 69.6624 48.8006 69.5845 48.9447C69.5838 48.9462 69.5828 48.9476 69.5817 48.949L69.5789 48.9524L69.5764 48.9553C69.5752 48.9568 69.5741 48.9584 69.5732 48.9601C69.5461 49.0119 69.5269 49.0699 69.5077 49.1284L69.5077 49.1284L69.5077 49.1285C69.4978 49.1583 69.488 49.1882 69.477 49.2175C69.4665 49.2451 69.4553 49.272 69.444 49.2988ZM26.0372 3.1677L5.10273 13.153C3.80087 13.7099 2.9674 14.9453 2.85278 16.3738C2.85952 16.3963 2.86798 16.4183 2.8764 16.4402C2.89095 16.4781 2.90542 16.5158 2.91079 16.5556C3.03674 17.5672 3.54616 18.1632 4.42209 18.3297L32.9343 26.7201C33.23 26.0863 33.6687 25.542 34.2418 25.1251C35.4078 24.2786 36.9814 24.0702 38.5677 24.5557C40.9903 25.2958 42.9572 27.47 43.5784 29.8526L67.9232 37.0216L45.401 15.9554C44.3963 16.357 43.2176 16.3877 42.0275 16.0226C39.0912 15.123 36.7918 12.1261 36.7918 9.1978C36.7918 8.79206 36.8356 8.40171 36.9248 8.02675L33.4296 4.75847C30.9574 2.91866 28.0622 2.29327 26.0372 3.1677ZM40.9719 31.3804C40.9719 31.8239 40.8686 32.4298 40.3733 32.7893C39.9375 33.1083 39.2978 33.1601 38.5677 32.9376C38.3483 32.8705 38.1318 32.7823 37.9238 32.6746C36.6715 32.0338 35.6583 30.7369 35.3937 29.4371C35.3498 29.223 35.3272 29.009 35.3272 28.7977C35.3328 28.7669 35.3512 28.6144 35.354 28.585C35.3555 28.5674 35.3527 28.5505 35.3499 28.5337L35.3499 28.5337C35.3474 28.5186 35.3449 28.5037 35.3456 28.4885C35.3894 28.0982 35.5323 27.6616 35.9243 27.3762C36.1833 27.1874 36.5144 27.0922 36.8936 27.0922C37.154 27.0922 37.437 27.137 37.7328 27.2279C39.3771 27.7316 40.7639 29.4245 40.9393 31.0433C40.9397 31.0467 40.9398 31.0501 40.9397 31.0534C40.9395 31.0573 40.9392 31.0611 40.9388 31.0649C40.9384 31.0697 40.9379 31.0745 40.9379 31.0796L40.9719 31.3804ZM70.7095 71.4057C71.6364 70.6922 72.167 69.6149 72.167 68.4536H72.1727V57.8639C71.8387 57.7478 71.5104 57.5995 71.1878 57.4344C71.1643 57.4228 71.1417 57.4094 71.119 57.3961C71.1006 57.3853 71.0822 57.3744 71.0633 57.3644C70.7859 57.2161 70.5142 57.051 70.2496 56.8677C70.227 56.8516 70.2047 56.8352 70.1824 56.8188C70.1601 56.8023 70.1378 56.7859 70.1152 56.7698C69.8633 56.5879 69.6199 56.3934 69.3836 56.1822C69.3355 56.1388 69.2874 56.0954 69.2407 56.0521C69.2012 56.0153 69.1609 55.98 69.1206 55.9447C69.0582 55.89 68.9957 55.8354 68.9364 55.775C68.9058 55.7448 68.8521 55.6815 68.8201 55.6437L68.8105 55.6323C68.594 55.4085 68.3379 55.1161 68.1072 54.8041C68.0492 54.7285 67.9898 54.6348 67.9332 54.541L67.9346 54.5396C67.8483 54.4137 67.7676 54.285 67.6869 54.1549C67.6695 54.128 67.6518 54.1013 67.6342 54.0744C67.559 53.9601 67.4834 53.8452 67.4181 53.724C67.3968 53.6845 67.3794 53.6445 67.3621 53.6047C67.3517 53.5809 67.3414 53.5572 67.3303 53.5337C67.2594 53.3947 67.1987 53.2526 67.1378 53.1101C67.127 53.0848 67.1162 53.0595 67.1053 53.0342C66.9992 52.8076 66.9369 52.6691 66.8902 52.5347C66.8852 52.5212 66.8824 52.5074 66.8795 52.4933C66.8767 52.4797 66.8739 52.466 66.869 52.4522C66.7374 52.066 66.6313 51.6743 66.5648 51.2756C66.5605 51.2469 66.5602 51.2192 66.5598 51.1916C66.5595 51.164 66.5591 51.1363 66.5549 51.1077C66.5011 50.7285 66.4657 50.3522 66.4756 49.9926C66.4756 49.9849 66.477 49.9775 66.4785 49.9702C66.4799 49.9629 66.4813 49.9555 66.4813 49.9478C66.4837 49.895 66.4925 49.8448 66.5014 49.7946C66.5086 49.7543 66.5157 49.7139 66.5195 49.6722C66.5478 49.3406 66.586 49.0118 66.6695 48.704C66.6886 48.6316 66.7176 48.564 66.7465 48.4964C66.7668 48.4491 66.787 48.4018 66.8039 48.3528C66.8227 48.2995 66.8407 48.2459 66.8586 48.1924C66.9194 48.0112 66.9801 47.8305 67.0685 47.6631C67.075 47.651 67.0833 47.6404 67.0917 47.6296C67.0999 47.6191 67.1083 47.6083 67.1152 47.5959C67.1671 47.5016 67.2318 47.4162 67.2964 47.3308C67.3305 47.2858 67.3646 47.2408 67.3968 47.1944C67.4357 47.139 67.4724 47.0818 67.509 47.0246C67.5817 46.9113 67.6542 46.7982 67.7435 46.7005L67.7464 46.6977C67.7598 46.6829 67.7744 46.6709 67.789 46.6589C67.802 46.6482 67.815 46.6375 67.827 46.625C67.8345 46.6169 67.8403 46.608 67.846 46.5991C67.8523 46.5894 67.8585 46.5798 67.8666 46.5718C67.8918 46.5462 67.9203 46.5258 67.9487 46.5055C67.973 46.4881 67.9973 46.4707 68.0195 46.4501C68.2105 46.2724 68.41 46.1115 68.6265 45.9688C68.7228 45.9058 68.8204 45.8485 68.9209 45.7925C69.1275 45.6778 69.344 45.5826 69.5676 45.5001C69.5971 45.4889 69.6266 45.4773 69.6561 45.4657C69.7339 45.4352 69.812 45.4045 69.893 45.3812C70.2142 45.2874 70.5496 45.2189 70.9006 45.1881C71.3095 45.1531 71.7326 45.1601 72.1699 45.2175V43.9653C72.1699 42.2094 70.9105 40.6704 69.1742 40.3025L43.6166 32.7809C43.5487 33.0202 43.461 33.2468 43.3577 33.4651C43.352 33.4763 43.3456 33.4864 43.3393 33.4966C43.3329 33.5067 43.3265 33.5169 43.3209 33.528C43.1964 33.7813 43.0421 34.0149 42.8709 34.2346C42.862 34.2456 42.8532 34.2566 42.8444 34.2676C42.804 34.3181 42.7639 34.3682 42.7209 34.4165C42.5228 34.6445 42.3063 34.8586 42.0558 35.0419C41.7969 35.2307 41.511 35.3748 41.2153 35.4994C41.1473 35.5288 41.0794 35.5567 41.0101 35.5819C40.7115 35.6896 40.4016 35.7736 40.0775 35.8184C40.0579 35.8215 40.0379 35.8224 40.0178 35.8234C40.0018 35.8241 39.9857 35.8249 39.97 35.8268C39.7818 35.8477 39.5936 35.8673 39.3997 35.8673C39.332 35.8673 39.2632 35.8603 39.1947 35.8533C39.1529 35.849 39.1113 35.8448 39.07 35.8421C39.0435 35.8402 39.017 35.8384 38.9906 35.8366C38.9241 35.8322 38.8577 35.8278 38.7898 35.8198C38.4403 35.7806 38.0865 35.719 37.7314 35.6099C37.379 35.5022 37.038 35.3609 36.7069 35.1958C36.6343 35.1595 36.5655 35.1173 36.4968 35.0751C36.4543 35.0491 36.4119 35.0231 36.3687 34.9985C36.1592 34.881 35.9512 34.7634 35.7545 34.6249C35.6644 34.5609 35.5794 34.4911 35.4942 34.4212C35.4604 34.3934 35.4265 34.3656 35.3923 34.3381L35.3865 34.3335C35.2172 34.1994 35.0494 34.0664 34.8927 33.9184C34.7951 33.8276 34.7041 33.7302 34.6128 33.6323C34.5929 33.6111 34.5731 33.5898 34.5531 33.5686C34.4088 33.4161 34.2673 33.2636 34.1357 33.0999C34.0324 32.9698 33.9376 32.8369 33.8428 32.7026C33.7225 32.5333 33.6093 32.364 33.5031 32.1863C33.4197 32.0464 33.3418 31.9051 33.2682 31.7596C33.1734 31.5763 33.0885 31.3902 33.0107 31.2014C32.9499 31.0558 32.8932 30.9103 32.8437 30.7606C32.7772 30.562 32.7234 30.3647 32.6767 30.1632C32.6723 30.1441 32.6679 30.1251 32.6635 30.106C32.6338 29.9785 32.6043 29.8517 32.5833 29.7239C32.5783 29.694 32.571 29.6643 32.5637 29.6347C32.5546 29.5978 32.5456 29.5611 32.5409 29.5238L3.74993 21.0439C3.42729 20.9838 3.11881 20.8914 2.82872 20.7683V37.3182C3.21503 37.3602 3.60559 37.4427 3.99332 37.5616C7.30741 38.576 9.90406 41.9576 9.90406 45.2595C9.90406 46.9705 9.21634 48.4158 7.96825 49.3252C6.6777 50.264 4.92585 50.4935 3.15702 49.9506C3.04806 49.9184 2.9391 49.8807 2.83014 49.8415V50.4641C2.83014 52.1878 4.0103 53.682 5.69989 54.1003L67.5143 72.1039C68.6011 72.3683 69.7826 72.1235 70.7095 71.4057Z" fill="#FFC700"/>
</svg>
