<svg width="77" height="74" viewBox="0 0 77 74" fill="none" xmlns="http://www.w3.org/2000/svg">
<g opacity="0.5">
<path fill-rule="evenodd" clip-rule="evenodd" d="M37.2207 54C36.5303 54 35.9403 53.4714 35.8733 52.7655L31.0061 1.49385C30.9698 1.11134 31.0956 0.731008 31.3524 0.446535C31.6093 0.162244 31.9734 0 32.3552 0H60.6448C61.0266 0 61.3909 0.162244 61.6476 0.446535C61.9044 0.731008 62.0302 1.11115 61.9939 1.49385L58.3666 39.704C58.2955 40.4539 57.6352 41.0043 56.8888 40.9321C56.1438 40.8604 55.5976 40.1945 55.6687 39.4444L58.4324 10.3316H34.5676L38.5712 52.506C38.6424 53.2559 38.0963 53.922 37.3511 53.9936C37.3074 53.998 37.2637 54 37.2207 54ZM58.6917 7.60346L59.1545 2.72832H33.8461L34.3088 7.60346H58.6917Z" fill="#FFC700"/>
<path d="M74.3414 46.4292C72.5155 43.7309 70.0348 42.245 67.3558 42.245C65.5606 42.245 63.8465 42.9234 62.3674 44.175V41.3827C62.3674 40.6191 61.7501 40 60.9886 40C60.2272 40 59.6098 40.6191 59.6098 41.3827V44.175C58.1305 42.9234 56.4164 42.245 54.6213 42.245C51.9293 42.245 49.4669 43.5477 47.6875 45.913C45.9545 48.2168 45 51.4169 45 54.9236C45 55.5311 45.0572 56.1943 45.1697 56.8941C45.291 57.6479 45.9984 58.1594 46.7507 58.0388C47.5024 57.9171 48.0134 57.2073 47.8921 56.4533C47.8028 55.8987 47.7575 55.3842 47.7575 54.9236C47.7575 49.1795 50.6441 45.0104 54.6211 45.0104C56.5775 45.0104 58.4601 46.3671 59.7865 48.7328C60.0306 49.1683 60.4902 49.4378 60.9884 49.4378C61.4866 49.4378 61.946 49.1683 62.1903 48.7328C63.5165 46.3671 65.3994 45.0104 67.3556 45.0104C71.0887 45.0104 74.2425 49.9712 74.2425 55.8432C74.2425 57.9402 73.3034 60.4257 71.4516 63.2308C70.8783 64.0991 70.1979 64.8939 69.4294 65.5934C68.8654 66.1064 68.8232 66.9809 69.3348 67.5465C69.6068 67.8473 69.9808 68 70.3563 68C70.6867 68 71.0183 67.8815 71.2823 67.6412C72.2206 66.7875 73.0512 65.8172 73.7509 64.7571C75.9069 61.4915 77 58.4923 77 55.8429C77.0002 52.3065 76.0558 48.9631 74.3414 46.4292Z" fill="#FFC700"/>
<path fill-rule="evenodd" clip-rule="evenodd" d="M32.268 55.2662L64.0437 63.21C66.5789 63.8438 68.265 66.3406 67.9656 69.0176C67.6662 71.6948 65.4736 73.7287 62.8654 73.7487L30.1736 73.9998C30.1509 74 30.1279 74 30.1053 74C27.4972 74 25.0071 72.8533 23.2633 70.8467C21.9823 69.3727 21.194 67.5341 20.9753 65.6002L8.01981 70.9956C7.85231 71.0656 7.67897 71.0986 7.50874 71.0986C6.96702 71.0986 6.45413 70.764 6.23919 70.2129C5.95657 69.4887 6.29594 68.6648 6.99676 68.373L16.4476 64.437L1.24093 62.9657C0.488468 62.8927 -0.0643815 62.2035 0.00604743 61.4261C0.0766589 60.6486 0.743545 60.0772 1.49619 60.1502L17.9722 61.7445L13.1794 57.5589C12.6023 57.0548 12.5298 56.1627 13.0177 55.5663C13.5054 54.97 14.3688 54.8952 14.9463 55.3992L21.511 61.1324C22.1614 59.3616 23.3137 57.812 24.8441 56.7087C27.0033 55.1523 29.7094 54.6265 32.268 55.2662ZM62.8453 70.9212C64.0734 70.9117 65.106 69.9541 65.247 68.6933C65.3879 67.4327 64.594 66.2568 63.4002 65.9587L31.6245 58.0149C31.1231 57.8895 30.6136 57.8279 30.107 57.8279C28.7967 57.8279 27.5036 58.2398 26.4102 59.028C24.8936 60.1212 23.9023 61.8366 23.6901 63.7344C23.4779 65.6324 24.0647 67.5362 25.3001 68.9578C26.5353 70.3792 28.3043 71.1881 30.1535 71.1723L62.8453 70.9212Z" fill="#FFC700"/>
<path fill-rule="evenodd" clip-rule="evenodd" d="M38 20.0001C38 17.7943 39.7943 16 41.9999 16C44.2055 16 46 17.7945 46 20.0001C46 22.2057 44.2055 24 41.9999 24C39.7943 24 38 22.2059 38 20.0001ZM40.8572 20.0001C40.8572 20.6302 41.3698 21.1428 41.9999 21.1428C42.63 21.1428 43.1428 20.6304 43.1428 20.0001C43.1428 19.3698 42.63 18.8572 41.9999 18.8572C41.3698 18.8572 40.8572 19.37 40.8572 20.0001Z" fill="#FFC700"/>
<path d="M48.5001 37C50.9813 37 53 34.9813 53 32.5001C53 31.7235 52.3704 31.0938 51.5937 31.0938C50.8171 31.0938 50.1874 31.7235 50.1874 32.5001C50.1874 33.4305 49.4305 34.1874 48.5001 34.1874C47.5697 34.1874 46.8126 33.4305 46.8126 32.5001C46.8126 31.5697 47.5695 30.8126 48.5001 30.8126C49.2767 30.8126 49.9064 30.1829 49.9064 29.4063C49.9064 28.6296 49.2767 28 48.5001 28C46.0189 28 44 30.0187 44 32.5001C44 34.9811 46.0187 37 48.5001 37Z" fill="#FFC700"/>
</g>
</svg>
