<svg width="18" height="18" viewBox="0 0 18 18" fill="none" xmlns="http://www.w3.org/2000/svg">
<path d="M9 18C4.0372 18 0 13.9628 0 9C0 4.0372 4.0372 0 9 0C13.9628 0 18 4.0372 18 9C18 13.9628 13.9628 18 9 18ZM9 1.125C4.65752 1.125 1.125 4.65752 1.125 9C1.125 13.3425 4.65752 16.875 9 16.875C13.3425 16.875 16.875 13.3425 16.875 9C16.875 4.65752 13.3425 1.125 9 1.125Z" fill="#FFC700"/>
<path d="M12.9375 13.8751C12.7934 13.8751 12.6495 13.8203 12.5399 13.71L8.60243 9.77249C8.49669 9.66675 8.4375 9.52351 8.4375 9.37506V4.12497C8.4375 3.81447 8.6895 3.56247 9 3.56247C9.3105 3.56247 9.5625 3.81447 9.5625 4.12497V9.14174L13.3351 12.9143C13.5548 13.134 13.5548 13.4903 13.3351 13.71C13.2255 13.8203 13.0816 13.8751 12.9375 13.8751Z" fill="#FFC700"/>
</svg>
