<svg width="25" height="25" viewBox="0 0 25 25" fill="none" xmlns="http://www.w3.org/2000/svg">
<g clip-path="url(#clip0)">
<path d="M6.9349 6.72605L7.48136 6.17853L2.62353 1.31769C2.47266 1.16652 2.22814 1.16652 2.07726 1.31769C1.92639 1.46886 1.92639 1.71386 2.07726 1.86502L6.9349 6.72605Z" fill="#FFC700"/>
<path d="M6.07427 7.54628L6.62073 6.99876L1.78808 2.15474C1.63721 2.00357 1.39269 2.00357 1.24182 2.15474C1.09094 2.30591 1.09094 2.55091 1.24182 2.70208L6.07427 7.54628Z" fill="#FFC700"/>
<path d="M10.3451 6.70943C10.3264 5.92684 10.0226 5.18496 9.50149 4.61814L4.25456 0.195702C4.04819 0.0216029 3.7432 0.0347894 3.55247 0.225898C3.34952 0.429428 3.34952 0.759089 3.55247 0.962428L7.55504 4.97302C7.80051 5.21898 7.80051 5.61763 7.55504 5.86359L5.77891 7.64319C5.53344 7.88914 5.13557 7.88914 4.89009 7.64319L0.887327 3.63278C0.684386 3.42944 0.355177 3.42944 0.152235 3.63278C-0.0384995 3.82389 -0.0516602 4.12947 0.122099 4.33625L4.53589 9.59344C5.10161 10.1156 5.84205 10.42 6.62311 10.4389L8.14059 10.4435C8.84154 10.4458 9.50988 10.7416 9.98385 11.2591L22.0522 24.5347C22.642 25.1739 23.7433 25.094 24.3574 24.4785C24.9718 23.8629 25.0515 22.7595 24.4135 22.1687L11.1639 10.0768C10.6474 9.60185 10.3522 8.93221 10.3499 8.22989L10.3451 6.70943Z" fill="#FFC700"/>
<path d="M24.848 23.0755C24.8454 23.0492 24.8421 23.023 24.8381 22.9968C24.8303 22.9448 24.82 22.893 24.807 22.8422C24.8006 22.8168 24.7935 22.7916 24.7857 22.7665C24.7157 22.5416 24.593 22.335 24.4136 22.1687L11.164 10.0767C11.0846 10.0039 11.0112 9.92596 10.9425 9.84436C10.8994 9.79314 10.8578 9.74078 10.8191 9.6867C10.7939 9.65153 10.7699 9.6158 10.7466 9.57949C10.6539 9.43424 10.5763 9.28002 10.5151 9.1193C10.4081 8.83818 10.351 8.53718 10.3499 8.22969L10.3451 6.70942C10.3394 6.46481 10.3057 6.2242 10.2461 5.99181C10.2223 5.89874 10.1945 5.80701 10.1626 5.71681C10.019 5.31128 9.79468 4.9369 9.50152 4.61813L4.25459 0.195696C4.22884 0.17391 4.20157 0.155181 4.17296 0.139128C4.10181 0.0993779 4.02361 0.0777827 3.94484 0.0739606C3.91337 0.0724317 3.8817 0.0737694 3.85061 0.0779738C3.74113 0.0926891 3.63585 0.142377 3.5525 0.225891C3.34936 0.429422 3.34936 0.759083 3.5525 0.962422L7.55507 4.97302C7.63174 5.04984 7.68458 5.14157 7.71338 5.23904C7.72482 5.27802 7.73245 5.31778 7.73627 5.35791C7.74008 5.39804 7.74008 5.43856 7.73627 5.47869C7.73054 5.53889 7.71624 5.59832 7.69316 5.65527C7.66245 5.73095 7.61648 5.80204 7.55507 5.86358L7.00461 6.41512L7.38646 6.73713C7.90755 7.30396 8.21158 8.04584 8.23027 8.82843C8.23027 8.82843 8.23027 8.84487 8.23046 8.8743C8.23351 9.66625 8.67678 10.3797 9.36571 10.768C9.36629 10.7684 9.36686 10.7688 9.36762 10.7691C9.38135 10.777 9.39471 10.7852 9.40844 10.7932C9.42847 10.8049 9.4483 10.8169 9.46795 10.8293C9.48187 10.8379 9.49541 10.8467 9.50915 10.8557C9.52955 10.8691 9.54958 10.8828 9.56961 10.8968C9.58124 10.905 9.59307 10.913 9.60451 10.9213C9.63503 10.9434 9.66498 10.966 9.69454 10.9895C9.70064 10.9943 9.70675 10.9996 9.71285 11.0046C9.73727 11.0243 9.7613 11.0445 9.78495 11.0652C9.79487 11.0738 9.8044 11.0826 9.81413 11.0913C9.83492 11.1101 9.85533 11.1292 9.87555 11.1487C9.88432 11.1571 9.8931 11.1653 9.90168 11.1739C9.92972 11.2016 9.95718 11.2299 9.98389 11.2591L19.5346 21.7651L22.2987 24.2877C22.4862 24.4613 22.6111 24.6793 22.6792 24.9161C22.7856 24.9469 22.8961 24.966 23.0078 24.9738C23.0815 24.979 23.1557 24.9794 23.2299 24.975C23.2319 24.9748 23.234 24.9746 23.2361 24.9746C23.3092 24.97 23.3824 24.9608 23.4549 24.9471C23.4574 24.9467 23.4601 24.9459 23.4627 24.9455C23.4957 24.939 23.5287 24.9318 23.5615 24.9234C23.5654 24.9224 23.569 24.9216 23.5726 24.9207C23.6079 24.9115 23.6432 24.9014 23.6779 24.8901C23.6785 24.8899 23.6788 24.8897 23.6794 24.8895C23.7118 24.879 23.7437 24.8672 23.7755 24.8549C23.782 24.8523 23.7885 24.8498 23.7948 24.8471C23.8265 24.8345 23.8579 24.8209 23.8888 24.8064C23.8894 24.806 23.8902 24.8058 23.8907 24.8055C23.9222 24.7905 23.9531 24.7745 23.9836 24.7577C23.9907 24.7539 23.9977 24.7498 24.0046 24.7458C24.0292 24.7319 24.0534 24.7174 24.0773 24.7021C24.0834 24.6982 24.0897 24.6944 24.0958 24.6904C24.1244 24.6719 24.1522 24.6524 24.1797 24.6319C24.1851 24.6279 24.1902 24.6237 24.1954 24.6197C24.2177 24.6027 24.2396 24.5849 24.261 24.5668C24.2682 24.5608 24.2753 24.5547 24.2823 24.5484C24.3081 24.5259 24.3333 24.5027 24.3575 24.4785C24.6838 24.1515 24.8593 23.6869 24.8564 23.2344C24.8561 23.1812 24.8534 23.1281 24.848 23.0755Z" fill="#FFC700"/>
<path d="M20.2619 9.46882C21.2204 9.38779 22.0915 8.8783 22.6332 8.08195L23.8304 6.32185C24.811 4.88032 25.1962 3.1141 24.9052 1.39393C24.8577 1.11262 24.7154 0.866665 24.514 0.687788C24.3126 0.508911 24.0518 0.396921 23.7673 0.383161C22.028 0.300029 20.3241 0.894949 19.0134 2.04332L17.4129 3.4451C16.6887 4.07957 16.2884 5.00702 16.3231 5.97021L16.4095 7.48799C16.4491 8.18935 16.1949 8.87562 15.7076 9.38072L3.20662 22.248C2.60523 22.8762 2.75095 23.973 3.40098 24.5503C4.05119 25.1278 5.15516 25.1412 5.70543 24.4678L16.9563 10.4899C17.3984 9.94468 18.0479 9.60948 18.7475 9.56495L20.2619 9.46882Z" fill="#FFC700"/>
<path d="M24.9052 1.39394C24.8577 1.11244 24.7154 0.866674 24.514 0.687605C24.4385 0.620526 24.3545 0.563003 24.2643 0.516373C24.1739 0.469742 24.0772 0.434196 23.9757 0.411454C23.908 0.396165 23.8384 0.38661 23.7673 0.38317C23.7049 0.380112 23.6423 0.378392 23.58 0.377055C23.5611 0.376672 23.5424 0.376672 23.5235 0.376481C23.4789 0.375908 23.4342 0.375717 23.3898 0.376099C23.3694 0.37629 23.349 0.376672 23.3286 0.376864C23.2822 0.377819 23.2361 0.379157 23.1899 0.380877C23.1735 0.38145 23.1571 0.381832 23.1407 0.382597C23.0776 0.385463 23.0146 0.389094 22.9517 0.393681C22.9671 1.76698 22.5643 3.12175 21.783 4.2705L20.5858 6.03042C20.1603 6.6563 19.5312 7.10483 18.8164 7.30778C18.2691 7.46296 17.7339 7.65847 17.2272 7.91704C16.7566 8.15707 16.2939 8.39691 16.2882 8.41449C16.2865 8.41946 16.2847 8.42462 16.283 8.42959C16.2716 8.46399 16.2596 8.498 16.2468 8.53164C16.2441 8.53852 16.2412 8.54521 16.2386 8.55209C16.226 8.58381 16.2132 8.61554 16.1995 8.64688C16.1955 8.65567 16.1913 8.66427 16.1875 8.67287C16.1741 8.70211 16.1608 8.73116 16.1463 8.76001C16.1411 8.77052 16.1352 8.78084 16.1299 8.79155C16.1161 8.81811 16.1022 8.84468 16.0875 8.87067C16.0805 8.88328 16.0728 8.89551 16.0654 8.90793C16.0515 8.93163 16.0375 8.95552 16.0229 8.97883C16.0137 8.99355 16.0038 9.00769 15.9941 9.02221C15.9803 9.04285 15.967 9.06388 15.9527 9.08413C15.9406 9.10114 15.9279 9.11758 15.9155 9.1342C15.9025 9.15159 15.8899 9.16937 15.8766 9.18638C15.8605 9.20683 15.8436 9.2267 15.8268 9.24677C15.8161 9.25957 15.8058 9.27276 15.7949 9.28537C15.7667 9.31767 15.7377 9.34958 15.7076 9.38054L3.20662 22.248C2.60523 22.8762 2.75095 23.973 3.40098 24.5503C4.05119 25.1279 5.15516 25.1412 5.70543 24.4678L16.9563 10.4899C17.3984 9.94469 18.0479 9.60949 18.7475 9.56496L20.2619 9.46883C21.2204 9.3878 22.0915 8.87831 22.6332 8.08196L23.8304 6.32186C24.811 4.88033 25.1962 3.11411 24.9052 1.39394Z" fill="#FFC700"/>
</g>
<defs>
<clipPath id="clip0">
<rect width="25" height="25" fill="white"/>
</clipPath>
</defs>
</svg>
